<?xml version="1.0" standalone="no"?>
<!DOCTYPE svg PUBLIC "-//W3C//DTD SVG 20010904//EN"
 "http://www.w3.org/TR/2001/REC-SVG-20010904/DTD/svg10.dtd">
<svg version="1.0" xmlns="http://www.w3.org/2000/svg"
 width="391.000000pt" height="695.000000pt" viewBox="0 0 391.000000 695.000000"
 preserveAspectRatio="xMidYMid meet">

<g transform="translate(0.000000,695.000000) scale(0.100000,-0.100000)"
fill="#000000" stroke="none">
<path d="M0 6073 l1 -878 23 44 c22 42 24 44 35 24 6 -12 11 -29 11 -37 0 -12
10 -16 34 -16 28 0 43 9 84 53 28 28 60 64 72 80 22 27 50 36 50 16 0 -6 17 4
38 23 47 42 96 72 144 88 21 6 38 16 38 21 0 6 5 7 12 3 6 -4 8 -3 5 3 -3 5
15 27 41 49 26 21 55 49 65 61 10 13 32 30 47 38 l29 15 -6 -35 c-7 -44 8 -46
39 -5 12 17 27 30 34 30 6 0 15 11 18 25 4 14 11 25 17 25 6 0 9 -7 5 -15 -5
-13 -1 -13 27 1 29 15 47 29 133 99 14 11 26 27 27 36 2 10 9 24 16 33 13 15
16 15 36 -4 l22 -21 89 60 c49 33 94 65 101 71 7 5 21 10 31 10 39 0 80 21 75
38 -3 14 16 26 89 57 51 22 100 39 108 37 45 -8 62 0 139 66 45 39 95 73 110
77 16 3 70 31 121 61 51 30 96 54 100 54 4 0 2 -17 -5 -37 -7 -21 -12 -40 -10
-41 6 -6 109 74 150 117 59 62 173 124 159 87 -3 -9 -4 -16 -2 -16 3 0 81 35
174 78 93 44 194 90 224 103 30 13 74 34 98 46 34 18 42 20 42 8 0 -21 13 -19
88 14 37 16 94 39 127 51 33 13 70 32 83 44 17 15 23 17 20 6 -2 -8 -16 -23
-33 -33 l-30 -17 46 6 c29 4 49 2 53 -5 12 -19 46 -12 55 12 5 12 7 25 4 30
-2 4 1 7 6 7 6 0 11 -6 11 -13 0 -8 11 -12 28 -11 36 3 34 2 61 25 22 18 23
21 7 32 -14 11 -13 12 11 14 16 1 55 8 88 17 l60 15 -77 -5 c-53 -4 -78 -3
-78 4 0 16 34 32 67 33 15 0 37 4 48 9 11 5 -757 9 -1757 9 l-1778 1 0 -877z
m2360 442 c-14 -8 -32 -14 -40 -14 -8 0 -1 7 15 14 39 18 57 18 25 0z m-640
-269 c0 -3 -4 -8 -10 -11 -5 -3 -10 -1 -10 4 0 6 5 11 10 11 6 0 10 -2 10 -4z
m-1505 -86 c3 -5 1 -10 -4 -10 -6 0 -11 5 -11 10 0 6 2 10 4 10 3 0 8 -4 11
-10z m1079 -55 c-4 -8 -11 -15 -16 -15 -6 0 -5 6 2 15 7 8 14 15 16 15 2 0 1
-7 -2 -15z m-327 -69 c-3 -8 -21 -23 -39 -32 l-33 -17 35 34 c37 36 46 40 37
15z m-266 -9 c-17 -17 -13 -35 11 -43 19 -6 19 -8 5 -16 -9 -5 -20 -8 -23 -8
-4 1 -10 -4 -14 -10 -4 -7 -6 6 -5 29 1 23 -2 38 -7 35 -5 -3 -7 -12 -4 -20 3
-7 1 -16 -3 -19 -5 -2 -11 4 -14 14 -3 13 3 23 19 32 13 7 24 16 24 21 0 5 5
6 11 2 8 -4 8 -9 0 -17z m-413 -22 c-3 -3 -9 2 -12 12 -6 14 -5 15 5 6 7 -7
10 -15 7 -18z m602 -19 c0 -2 -8 -10 -17 -17 -16 -13 -17 -12 -4 4 13 16 21
21 21 13z m230 -96 c11 -7 7 -10 -17 -10 -17 0 -35 5 -38 10 -8 13 35 13 55 0z
m-113 -25 c-15 -14 -33 -25 -38 -25 -6 0 3 11 18 25 15 13 33 24 38 24 6 0 -3
-11 -18 -24z m-287 -185 c0 -5 -7 -10 -16 -10 -8 0 -12 5 -9 10 3 6 10 10 16
10 5 0 9 -4 9 -10z"/>
<path d="M3714 6858 l-19 -23 23 19 c21 18 27 26 19 26 -2 0 -12 -10 -23 -22z"/>
<path d="M3686 6763 c-6 -14 -5 -15 5 -6 7 7 10 15 7 18 -3 3 -9 -2 -12 -12z"/>
<path d="M3325 6605 c-22 -7 -62 -18 -90 -24 -59 -13 -172 -68 -179 -86 -2 -7
-20 -15 -40 -19 -43 -8 -56 -24 -18 -22 15 1 46 16 69 34 28 22 75 42 144 63
56 16 118 39 138 49 41 22 34 23 -24 5z"/>
<path d="M3711 6582 c-13 -12 -26 -34 -27 -48 -2 -15 -4 -27 -6 -29 -9 -7
-188 -11 -188 -4 0 14 -27 10 -33 -5 -6 -14 -65 -28 -72 -16 -5 7 -128 -12
-220 -34 -37 -9 -62 -11 -66 -5 -3 6 -27 2 -60 -10 -30 -10 -97 -29 -149 -41
-52 -12 -104 -27 -115 -33 -11 -6 -26 -10 -32 -9 -7 2 -10 -3 -7 -12 7 -18
-12 -31 -22 -15 -5 8 -3 9 6 4 8 -5 11 -4 6 3 -4 6 -14 8 -22 5 -11 -4 -12 -8
-4 -13 19 -12 0 -42 -24 -36 -11 3 -27 6 -34 6 -7 0 -10 5 -6 12 7 11 -4 10
-51 -7 -18 -6 -19 -6 -3 7 10 8 68 32 130 53 62 21 117 42 123 46 15 14 -12
11 -52 -6 -40 -17 -66 -20 -43 -5 12 8 9 10 -12 10 -15 0 -36 -10 -48 -22 -15
-17 -20 -18 -20 -6 0 12 -7 14 -37 7 -21 -5 -59 -11 -84 -14 -28 -4 -70 -20
-105 -41 -40 -24 -68 -34 -93 -33 -20 1 -75 -13 -126 -32 l-89 -34 -10 -45
-10 -45 -7 40 c-3 22 -7 34 -8 27 0 -7 -5 -11 -10 -8 -5 3 -11 0 -14 -8 -3 -7
-19 -18 -37 -24 -18 -7 -28 -7 -25 -2 8 13 10 14 -75 -21 -97 -39 -200 -91
-200 -101 0 -10 6 -10 52 1 30 7 35 6 31 -6 -3 -7 -11 -12 -17 -10 -6 2 -33
-14 -60 -35 -27 -22 -63 -46 -80 -55 l-31 -16 19 22 19 21 -90 0 c-88 0 -158
-14 -148 -30 6 -10 -73 -62 -84 -55 -5 3 -11 0 -13 -5 -2 -6 -12 -13 -23 -14
-11 -2 -19 -8 -18 -14 2 -6 -9 -20 -24 -31 -14 -12 -21 -21 -14 -21 28 0 6
-30 -47 -63 -54 -33 -62 -35 -96 -26 -52 14 -81 8 -81 -16 -1 -11 3 -23 8 -26
9 -6 -8 -13 -127 -56 -48 -18 -73 -43 -42 -43 26 0 18 -14 -18 -32 -32 -16
-34 -16 -29 3 3 11 10 16 17 12 6 -4 5 1 -3 10 -12 16 -16 15 -43 -8 -16 -14
-34 -25 -39 -25 -5 0 -9 -5 -9 -11 0 -6 7 -9 15 -5 18 6 45 -2 45 -15 0 -4
-33 -24 -72 -43 -40 -20 -98 -51 -128 -71 -30 -19 -58 -35 -63 -35 -5 0 -25
-13 -44 -30 -18 -16 -42 -30 -53 -30 -10 0 -41 -11 -68 -25 -28 -14 -59 -25
-69 -25 -36 0 -87 -22 -138 -60 -27 -21 -60 -42 -72 -49 -14 -7 -23 -24 -28
-51 -5 -29 -16 -47 -36 -62 l-29 -22 0 -125 0 -126 43 47 c31 35 63 56 125 82
121 52 125 44 5 -11 -85 -38 -107 -53 -130 -87 -15 -23 -31 -42 -35 -44 -5 -2
-8 -315 -7 -695 0 -381 3 -687 5 -680 3 7 12 9 20 6 8 -3 14 0 14 6 0 6 7 11
15 11 12 0 15 13 15 55 0 42 -3 55 -15 55 -18 0 -20 20 -2 21 6 0 0 5 -15 11
-43 15 -34 31 12 25 32 -4 43 -1 54 15 8 10 12 29 9 41 -3 16 -2 18 5 8 7 -10
16 -3 36 31 22 38 24 49 16 79 -13 45 -13 53 4 37 20 -20 57 -108 45 -108 -6
0 -8 -4 -5 -9 3 -5 -17 -41 -45 -80 -45 -64 -52 -70 -70 -60 -20 10 -20 8 -18
-75 2 -46 6 -83 10 -80 7 4 59 -60 59 -73 0 -4 -7 1 -15 11 -18 24 -19 11 -4
-33 7 -21 14 -29 19 -21 5 8 15 0 29 -23 22 -36 27 -52 12 -43 -5 3 -12 -1
-15 -10 -6 -16 -26 -11 -26 7 0 6 4 8 9 5 11 -7 23 22 15 35 -3 5 -11 9 -17 9
-7 0 -6 -4 3 -10 13 -9 13 -11 0 -20 -8 -5 -15 -22 -15 -37 0 -23 -5 -28 -25
-30 -34 -3 -75 18 -58 29 10 6 9 8 -3 8 -8 0 -20 -5 -27 -12 -6 -6 -15 -8 -19
-4 -4 4 -1 11 7 16 9 6 10 10 3 10 -21 0 -26 -23 -8 -36 33 -24 55 -67 43 -81
-8 -10 -7 -12 3 -8 19 7 53 -84 37 -102 -16 -20 -32 -15 -17 5 13 15 12 16 -3
3 -10 -7 -16 -17 -13 -21 2 -4 -4 -15 -15 -25 -26 -23 -25 -59 1 -104 l21 -36
-27 33 c-38 46 -45 31 -45 -104 0 -105 1 -112 23 -123 l22 -11 -22 6 c-21 5
-23 2 -23 -39 0 -39 5 -48 42 -82 24 -21 82 -67 130 -102 77 -55 93 -63 133
-63 32 0 45 -4 45 -14 0 -7 7 -19 15 -26 8 -7 12 -17 8 -24 -3 -6 -3 -8 2 -4
4 4 16 -4 27 -17 11 -14 27 -25 37 -25 9 0 27 -8 40 -17 14 -9 21 -12 18 -6
-19 31 50 10 109 -33 21 -14 24 -13 58 29 37 46 45 72 24 80 -8 3 -6 6 4 6 9
1 23 -8 31 -20 13 -18 18 -19 39 -8 12 7 55 23 93 35 39 13 69 28 67 34 -1 6
1 9 6 6 8 -5 114 45 139 66 8 6 11 18 8 26 -4 11 -2 12 7 5 8 -6 22 -7 33 -2
33 13 41 10 17 -7 -23 -16 -23 -17 -5 -36 17 -20 17 -20 -2 -17 -11 3 -20 11
-20 18 0 8 -5 16 -11 18 -14 5 -27 -25 -17 -39 3 -6 1 -8 -4 -5 -14 9 -37 -19
-28 -33 3 -5 2 -10 -3 -10 -5 0 -12 -9 -15 -20 -7 -26 -1 -25 39 5 18 14 39
25 47 25 8 0 20 7 27 15 7 8 17 15 22 15 6 0 4 -8 -3 -17 -8 -9 10 1 39 21 29
21 58 46 65 55 17 25 40 30 55 12 11 -14 11 -14 6 2 -3 9 -2 17 4 17 11 0 10
-25 -1 -36 -12 -13 -7 -24 8 -18 8 4 15 12 15 20 0 16 76 57 93 50 7 -2 4 -5
-5 -5 -10 -1 -18 -8 -18 -17 0 -8 3 -13 8 -11 4 2 38 18 75 36 48 23 67 37 63
47 -20 49 -20 50 -4 36 16 -13 76 -13 84 -1 8 14 -8 38 -22 32 -8 -3 -14 0
-14 6 0 6 6 11 14 11 16 0 14 43 -5 105 -4 17 -9 66 -11 110 -2 76 0 84 42
170 24 50 46 94 48 99 3 5 -5 -1 -17 -13 -20 -20 -41 -28 -41 -15 0 4 12 18
28 32 15 13 22 21 15 18 -6 -3 -14 -2 -17 3 -9 13 -46 1 -46 -15 0 -8 -4 -14
-9 -14 -5 0 -8 11 -8 25 0 22 7 29 28 27 3 -1 6 6 6 14 0 16 -44 19 -67 4 -12
-8 -12 -10 -1 -10 8 0 11 -7 8 -19 -3 -13 0 -18 7 -15 15 6 16 -77 2 -88 -6
-4 -4 -16 5 -30 18 -29 17 -43 -5 -92 -9 -22 -15 -45 -12 -52 5 -13 -11 -13
-31 -1 -17 10 -17 -5 0 -23 10 -12 9 -12 -6 -1 -9 7 -17 10 -17 6 0 -4 -6 -3
-12 3 -17 14 -69 10 -64 -5 8 -20 -6 -23 -21 -5 -13 16 -14 15 -10 -5 3 -13 1
-23 -4 -23 -5 0 -9 5 -9 10 0 6 -5 10 -11 10 -8 0 -8 -4 -1 -13 16 -18 0 -72
-21 -71 -9 1 -13 -4 -10 -11 2 -8 -4 -22 -14 -32 -11 -11 -17 -25 -15 -33 3
-7 0 -10 -5 -7 -5 3 -8 -6 -6 -21 3 -20 -3 -32 -23 -46 -38 -27 -107 -33 -139
-12 -22 15 -25 22 -20 59 4 29 3 36 -4 22 -4 -11 -7 -23 -4 -27 5 -10 -75 -50
-87 -43 -5 3 -11 -4 -15 -15 -3 -11 -14 -20 -23 -20 -15 0 -15 2 -2 11 12 9
12 10 -3 5 -10 -3 -21 -6 -23 -6 -2 0 -4 -7 -4 -15 0 -8 5 -15 12 -15 6 0 8
-3 5 -7 -4 -3 11 -24 34 -46 22 -22 37 -42 34 -45 -3 -3 -33 21 -66 54 -59 59
-61 62 -51 96 5 20 30 62 56 94 31 40 46 69 46 89 0 55 12 105 26 105 7 0 16
5 20 12 5 7 2 9 -8 5 -20 -7 -28 28 -21 84 6 41 55 94 142 152 38 25 41 30 39
65 l-3 37 -63 5 c-34 3 -62 2 -62 -2 0 -5 5 -8 10 -8 18 0 11 -21 -22 -64 -17
-22 -33 -42 -34 -44 -1 -2 -17 4 -35 14 -24 12 -34 13 -37 5 -8 -23 -54 -71
-69 -71 -12 0 -13 8 -8 43 8 48 12 57 26 57 6 0 6 -6 0 -18 -8 -14 -6 -18 10
-19 13 -1 19 5 19 18 0 23 9 24 55 2 19 -9 38 -14 41 -10 11 10 -15 72 -35 82
-10 6 -35 18 -55 29 -51 26 -39 31 13 5 34 -16 46 -18 55 -8 8 9 8 10 -3 4
-11 -6 -13 -4 -8 8 4 11 -1 20 -16 27 -21 11 -21 11 -3 -4 20 -16 11 -22 -10
-8 -14 9 -11 55 4 60 7 2 9 8 6 14 -3 5 -14 2 -25 -8 -10 -9 -19 -12 -19 -7 0
6 12 18 26 28 14 9 36 41 49 70 13 29 29 56 34 60 30 18 -16 138 -60 161 -16
8 -29 22 -29 32 0 9 -9 32 -20 50 -12 19 -16 31 -11 28 5 -3 7 3 4 14 -7 27
-23 36 -24 13 0 -10 -7 7 -15 37 -8 30 -21 64 -28 75 -7 11 -20 42 -29 69 -14
39 -14 51 -5 58 12 7 5 12 -13 10 -4 -1 -23 40 -42 91 -20 51 -63 161 -96 246
-61 155 -78 218 -27 97 32 -76 62 -108 77 -86 8 12 9 11 7 -5 -2 -14 2 -20 14
-19 9 1 14 -4 12 -11 -3 -7 3 -19 14 -26 10 -8 22 -24 26 -36 4 -13 12 -23 18
-23 6 0 6 6 -2 15 -7 8 -8 15 -2 15 12 0 35 -28 38 -47 2 -9 -2 -11 -9 -5 -18
13 -93 35 -106 31 -7 -3 -7 -12 3 -30 7 -14 23 -54 36 -90 22 -60 26 -65 52
-64 38 2 42 9 13 25 -14 7 -25 17 -25 22 0 11 2 10 37 -7 30 -15 93 -18 93 -4
0 3 13 5 29 4 21 -1 28 2 24 12 -4 11 -8 11 -21 1 -13 -11 -14 -10 -8 8 5 15
-1 26 -24 42 -16 12 -33 22 -37 22 -4 0 -9 17 -10 38 -1 21 1 30 5 21 4 -9 22
-29 40 -44 17 -15 30 -31 26 -36 -3 -5 1 -9 9 -9 8 0 18 7 21 16 3 8 2 12 -4
9 -5 -3 -18 12 -29 34 -18 38 -18 43 -3 76 9 19 20 35 25 35 4 0 5 5 2 10 -3
6 0 10 8 10 10 0 16 -14 19 -42 2 -24 1 -44 -2 -46 -19 -8 -44 -31 -39 -36 3
-3 28 -8 54 -11 47 -5 48 -4 27 11 -12 8 -20 19 -17 24 6 9 73 -4 126 -25 20
-8 39 -12 42 -9 2 3 14 -7 26 -22 26 -34 27 -25 1 26 -11 22 -29 44 -40 50
-11 6 -20 20 -20 32 0 11 -23 58 -51 104 -44 71 -55 101 -75 194 -24 110 -42
152 -109 259 -28 43 -33 59 -27 85 8 36 7 77 -3 231 -7 97 -10 113 -32 136
-21 23 -24 37 -29 130 -2 57 -1 109 3 116 9 12 115 65 120 59 2 -1 -7 -45 -19
-96 l-21 -93 24 -44 c13 -24 32 -51 41 -60 16 -14 17 -13 12 23 -5 35 -4 37 9
21 12 -14 39 -113 42 -152 0 -5 4 -15 8 -22 4 -6 4 -18 1 -27 -6 -15 15 -105
54 -236 10 -30 34 -88 54 -130 l37 -75 -35 40 c-19 22 -40 51 -45 65 -10 23
-12 24 -23 8 -12 -16 -18 -14 -80 22 -81 48 -104 52 -80 15 9 -14 33 -42 53
-62 20 -21 44 -49 54 -63 17 -25 18 -25 11 -2 -5 20 -3 23 13 20 10 -2 17 -10
15 -16 -1 -7 5 -12 14 -12 8 0 13 -4 9 -9 -3 -5 5 -17 17 -25 21 -15 21 -16 2
-16 -11 0 -30 7 -42 16 -21 14 -22 14 -22 -10 0 -15 6 -26 13 -26 7 0 23 -18
36 -40 12 -22 18 -40 12 -40 -5 0 -13 5 -16 10 -10 16 -21 11 -21 -9 0 -11 3
-18 7 -16 3 3 19 -24 34 -60 29 -68 49 -93 60 -75 3 5 10 65 16 132 5 66 11
123 14 126 13 14 -8 -239 -25 -298 -26 -89 -18 -118 40 -146 24 -12 51 -19 62
-16 26 6 22 -13 -7 -36 -27 -21 -32 -32 -14 -32 10 0 99 -59 124 -83 6 -5 -10
1 -34 13 l-43 22 15 -22 c10 -15 13 -30 8 -44 -26 -71 -26 -72 44 -105 63 -29
76 -43 55 -56 -6 -4 -10 -28 -9 -53 1 -26 -1 -54 -4 -62 -9 -19 42 -54 125
-87 35 -13 50 -22 33 -19 -16 2 -61 19 -100 37 -38 18 -79 32 -90 31 -15 -2
-16 0 -6 7 11 7 11 24 0 101 -13 89 -14 93 -46 108 -30 14 -32 19 -35 71 -3
53 -4 56 -28 53 -30 -4 -53 -31 -44 -52 8 -20 16 -99 8 -82 -5 10 -11 10 -31
-3 -16 -11 -29 -13 -36 -7 -17 13 -45 11 -51 -5 -3 -7 -12 -13 -21 -13 -10 0
-15 -10 -15 -30 0 -28 2 -29 20 -18 17 11 22 10 30 -2 15 -24 12 -37 -13 -45
-12 -4 -25 -7 -29 -6 -12 2 -10 -17 2 -24 6 -4 17 -2 24 4 17 14 29 -10 19
-36 -4 -11 4 -8 20 10 25 26 28 27 49 13 25 -16 56 -7 44 13 -4 6 -2 11 3 11
6 0 11 -4 11 -10 0 -5 4 -10 10 -10 5 0 9 5 7 12 -1 6 5 13 14 15 21 5 21 -26
0 -50 -15 -17 -14 -18 12 -12 21 6 27 4 27 -9 0 -14 -6 -16 -33 -11 -29 6 -33
4 -32 -12 1 -10 8 -31 15 -46 10 -20 16 -24 22 -15 6 9 7 6 3 -8 -4 -16 0 -23
14 -27 27 -7 33 2 15 20 -21 21 -13 47 14 51 21 3 22 1 12 -17 -11 -22 -4 -27
20 -11 8 5 12 12 8 15 -10 11 24 44 38 38 18 -7 18 -37 -1 -73 -13 -25 -13
-29 2 -35 12 -4 14 -8 6 -13 -14 -9 -22 -112 -8 -112 6 0 3 -5 -5 -11 -14 -10
12 -8 73 5 7 1 2 -2 -10 -8 -34 -15 -28 -25 12 -19 23 4 35 2 35 -6 0 -6 -8
-11 -17 -12 -11 0 -13 -3 -5 -6 6 -2 10 -10 6 -16 -3 -7 1 -3 10 7 12 15 18
17 30 7 13 -11 13 -19 -4 -62 -29 -74 -27 -96 15 -116 19 -9 32 -20 29 -25 -8
-13 16 -38 37 -38 11 0 19 6 19 13 0 6 5 4 11 -6 8 -13 7 -22 -1 -33 -10 -11
-9 -14 4 -14 9 0 27 22 42 52 14 28 41 74 59 102 138 216 147 234 131 258 -9
12 -16 32 -17 43 0 20 0 19 -9 -1 -4 -12 -16 -24 -26 -28 -15 -6 -14 -10 11
-36 37 -38 28 -47 -10 -12 -17 15 -41 28 -55 30 -13 1 -27 8 -31 14 -4 7 -9 4
-12 -8 -4 -16 -5 -16 -6 3 -1 18 -6 21 -31 18 -18 -2 -30 1 -30 8 0 8 -3 9 -8
1 -4 -6 -15 -13 -24 -17 -15 -5 -18 -1 -18 23 0 27 3 30 34 30 19 0 38 -4 41
-10 4 -6 -1 -7 -12 -4 -16 5 -16 4 1 -10 10 -8 23 -13 27 -10 13 8 11 54 -3
54 -6 0 -3 10 8 22 19 22 19 22 0 8 -23 -18 -70 -22 -56 -5 6 7 7 14 4 18 -10
10 35 28 64 25 21 -2 28 2 30 19 2 15 23 34 61 58 32 19 63 35 69 35 14 0 48
-44 72 -94 11 -23 29 -54 39 -71 22 -34 28 -59 8 -31 -12 16 -15 12 -37 -36
-79 -177 -102 -223 -118 -233 -9 -7 -33 -37 -53 -66 -130 -195 -196 -301 -225
-364 l-33 -71 25 -78 c18 -58 22 -82 14 -92 -9 -9 -7 -22 5 -48 9 -19 15 -50
14 -70 -2 -19 -1 -37 2 -40 7 -8 156 52 190 75 14 10 29 15 33 12 5 -6 57 14
194 73 17 7 32 18 32 24 0 13 0 13 -49 -4 -22 -8 -67 -16 -98 -17 -32 -1 -76
-9 -98 -16 -60 -22 -155 -51 -155 -49 0 14 126 76 252 126 l157 61 3 131 3
132 50 29 c28 17 101 56 162 88 62 32 143 82 180 111 37 29 64 48 60 41 -8
-13 11 -63 24 -63 14 0 27 -69 34 -170 4 -52 8 -96 10 -98 2 -2 16 3 32 11 15
8 87 34 158 58 72 23 135 46 141 51 6 4 9 21 6 36 -3 20 1 31 12 35 14 5 15 3
6 -13 -6 -11 -9 -20 -6 -20 2 0 30 43 61 95 31 52 62 95 68 95 7 0 38 14 70
30 73 37 193 79 237 82 60 5 43 -19 -32 -47 -40 -15 -91 -34 -113 -42 -22 -8
-57 -16 -78 -18 -71 -7 -97 -31 -122 -115 -19 -64 -28 -79 -61 -103 -45 -33
-46 -43 -4 -39 17 2 30 1 30 -2 0 -15 -27 -63 -45 -79 -20 -18 -20 -18 3 -7
40 20 26 -17 -18 -45 -41 -26 -52 -39 -25 -29 9 4 15 0 15 -7 0 -12 2 -12 9 0
12 19 28 6 33 -28 2 -17 2 -28 -2 -26 -26 16 -46 -52 -57 -190 -6 -75 -8 -83
-13 -50 -5 35 -7 37 -12 15 -22 -92 -28 -146 -29 -253 -1 -79 -4 -113 -9 -97
-5 15 -7 -19 -6 -87 2 -62 -1 -113 -4 -113 -9 0 -17 74 -26 240 -4 66 -11 118
-18 122 -15 11 -124 10 -130 -1 -3 -4 -26 -14 -50 -21 -28 -7 -48 -20 -51 -31
-4 -12 -12 -16 -22 -12 -10 4 -14 2 -9 -5 3 -6 -3 -13 -14 -17 -11 -4 -19 -9
-17 -13 5 -8 -25 -36 -41 -39 -15 -4 -15 10 0 25 15 15 8 17 -147 36 -148 19
-186 15 -342 -34 l-100 -31 -7 -46 c-3 -25 -6 -89 -6 -142 0 -81 5 -109 30
-180 16 -47 28 -86 27 -88 -2 -1 -19 2 -38 7 -49 14 -51 13 -33 -15 10 -15 12
-25 5 -25 -6 0 -11 5 -11 11 0 6 -8 8 -19 4 -10 -3 -35 -6 -55 -7 -20 -1 -36
-5 -36 -10 0 -7 70 -12 157 -11 12 0 21 -3 20 -6 -1 -3 5 -17 12 -30 12 -21
11 -26 -5 -38 -10 -7 -14 -13 -9 -13 4 0 0 -9 -9 -19 -10 -11 -28 -18 -45 -17
-28 2 -28 1 -40 -84 -7 -47 -13 -93 -13 -103 1 -21 -6 -22 -27 -3 -9 7 -36 16
-59 19 -40 5 -45 3 -60 -24 -10 -16 -20 -29 -24 -29 -5 0 -8 -4 -8 -9 0 -7 44
-27 80 -36 49 -13 55 -22 52 -82 l-4 -59 -70 23 c-39 13 -74 23 -78 23 -4 0
-12 -24 -18 -52 l-10 -53 5 68 c4 46 2 67 -6 67 -7 0 -11 -24 -11 -65 0 -72
-5 -76 -59 -49 l-32 16 22 24 c17 19 25 21 32 12 6 -10 8 -9 4 3 -3 8 -2 34 2
56 7 33 5 42 -10 52 -11 6 -26 11 -34 11 -21 0 -19 26 2 35 16 6 14 9 -10 21
l-28 15 36 42 c20 23 41 61 47 84 9 37 14 43 37 43 14 1 51 7 81 14 41 9 59
19 70 39 13 23 13 28 -3 45 -16 17 -22 18 -55 7 -55 -18 -102 -26 -102 -16 0
5 14 11 30 15 40 7 41 36 1 36 -15 0 -55 3 -88 6 -57 6 -60 5 -77 -21 -10 -15
-19 -38 -20 -50 -1 -25 -16 -24 -16 1 0 8 -7 14 -15 14 -18 0 -19 11 -2 29 10
11 9 12 -2 6 -11 -6 -13 -3 -9 13 4 16 2 19 -10 15 -11 -5 -13 -3 -7 6 6 10 3
11 -13 2 -30 -16 -40 -13 -18 4 11 8 15 15 10 15 -6 0 -15 -5 -22 -12 -9 -9
-7 -17 11 -37 12 -13 16 -21 10 -17 -7 4 -23 1 -35 -6 -13 -6 -27 -13 -33 -14
-19 -4 -320 -75 -338 -81 -10 -2 -24 -18 -31 -33 -8 -20 -16 -26 -25 -21 -10
6 -9 12 4 25 20 20 13 20 -70 1 -37 -9 -72 -14 -77 -13 -6 2 24 12 67 22 61
14 75 21 70 33 -4 13 -3 13 9 4 16 -13 66 -5 78 13 4 6 5 20 1 31 -5 17 -4 18
9 7 13 -10 17 -9 22 5 8 21 -39 67 -56 57 -8 -5 -9 -1 -5 10 4 10 7 25 7 34 0
14 2 14 9 3 15 -24 31 -2 31 43 0 45 -27 103 -73 160 -18 22 -32 29 -55 28
-39 -1 -41 13 -4 27 23 9 20 10 -23 6 -82 -9 -88 -11 -95 -29 -3 -10 -10 -18
-15 -19 -6 -1 -9 -7 -9 -14 1 -6 -4 -9 -10 -7 -19 7 -42 -26 -65 -91 -25 -71
-25 -71 -6 -55 32 27 6 -18 -85 -143 -13 -19 -13 -20 0 -15 8 3 23 9 32 13 14
6 16 0 15 -38 -1 -25 1 -49 5 -52 4 -4 23 3 43 15 58 36 50 17 -10 -23 -30
-20 -55 -32 -55 -27 0 20 -49 -13 -66 -45 -17 -33 -45 -45 -98 -45 -23 0 -39
-28 -51 -89 l-7 -35 41 33 c30 24 39 28 34 14 -3 -10 -13 -26 -20 -35 -8 -9
-13 -20 -10 -25 2 -4 1 -28 -2 -53 l-7 -45 -21 55 -22 55 -7 -32 c-8 -38 -17
-41 -38 -12 l-14 21 -56 -27 c-40 -19 -56 -33 -56 -47 0 -33 19 -57 60 -78 41
-21 49 -34 28 -43 -7 -3 2 -3 21 0 21 4 45 18 62 38 21 23 36 31 63 32 32 1
36 -2 37 -25 1 -22 3 -21 8 8 5 27 11 36 30 38 13 2 27 -2 31 -8 11 -18 11
-98 0 -105 -21 -13 -7 -24 54 -45 57 -19 64 -24 70 -52 11 -57 9 -62 -19 -44
-23 15 -28 15 -87 -14 l-63 -29 -80 20 c-167 44 -225 50 -225 24 0 -8 -3 -15
-7 -16 -5 0 -48 -10 -98 -23 l-90 -23 -3 -197 -2 -197 25 -33 c32 -42 32 -56
0 -26 l-25 23 0 -246 0 -247 1392 0 c765 0 1389 2 1387 4 -18 19 -359 74 -654
106 -151 17 -218 28 -224 39 -5 8 -17 7 -39 -1 -30 -12 -34 -11 -55 15 -20 25
-29 28 -92 31 -38 2 -99 9 -135 15 -36 6 -85 11 -109 11 -24 0 -42 2 -39 5 3
3 37 6 76 6 74 1 80 7 49 47 -19 24 8 35 81 30 63 -3 69 -2 64 15 -3 12 2 20
17 24 28 7 26 22 -7 58 -16 17 -37 46 -48 66 -10 20 -39 68 -64 105 -47 71
-74 124 -67 131 2 2 11 -7 19 -19 25 -38 98 -25 98 17 0 6 -5 3 -10 -5 -6 -9
-10 -10 -10 -3 0 6 7 18 15 27 10 9 15 29 13 51 -2 27 4 41 23 58 14 12 23 30
21 40 -4 21 21 23 38 2 7 -8 16 -13 20 -10 5 3 10 0 13 -7 2 -7 3 -5 2 5 -2 9
1 17 6 17 5 0 9 5 9 12 0 6 -9 3 -21 -8 -21 -19 -21 -19 -8 11 7 17 19 37 26
46 7 9 11 23 7 32 -6 17 6 25 85 57 29 11 50 16 46 11 -6 -11 17 -26 87 -56
52 -22 161 -112 153 -125 -3 -5 5 -14 17 -21 l22 -12 -18 27 c-10 15 -15 30
-12 33 9 9 54 -46 81 -97 32 -62 60 -87 80 -70 13 10 22 6 56 -31 22 -24 48
-55 57 -69 9 -14 25 -31 34 -38 10 -7 18 -19 18 -26 0 -8 7 -19 15 -26 8 -7
15 -17 15 -22 0 -16 -43 3 -78 33 -40 35 -49 36 -64 5 -6 -16 -21 -26 -37 -28
-26 -3 -26 -3 8 -20 19 -10 42 -18 52 -18 10 0 27 -12 38 -26 16 -21 18 -30
10 -46 -6 -12 -8 -38 -5 -59 7 -43 -5 -50 -46 -28 -15 8 -19 8 -16 -1 7 -22
98 -52 139 -45 33 6 39 3 66 -32 61 -78 72 -121 18 -74 -19 17 -49 38 -66 47
-30 15 -32 15 -48 -8 -24 -34 -21 -40 33 -75 54 -37 79 -42 69 -16 -5 12 -1
11 15 -5 29 -29 119 -72 151 -72 14 0 37 -9 51 -20 24 -19 44 -20 558 -20
l533 0 -1 277 -2 276 -25 36 -25 36 26 -30 25 -29 1 337 c0 197 -4 336 -9 333
-15 -10 -20 32 -5 51 10 14 13 68 14 240 l0 222 -22 4 -23 4 23 2 c16 1 22 7
22 25 0 49 -109 37 -111 -12 0 -10 -3 -12 -6 -5 -2 7 1 29 7 48 9 27 17 35 36
35 14 0 22 -4 19 -10 -3 -5 -2 -10 4 -10 5 0 12 6 15 13 5 10 7 10 12 0 13
-28 24 -10 24 36 l0 49 -140 -2 c-100 -2 -137 1 -131 8 6 7 6 25 0 46 l-9 35
5 -39 4 -38 -22 18 c-15 14 -18 14 -9 3 7 -9 11 -23 10 -30 -2 -9 5 -13 22
-12 25 3 25 2 5 -13 -19 -16 -19 -16 10 -10 24 5 26 4 13 -4 -10 -6 -62 -19
-116 -30 -122 -23 -198 -56 -180 -77 6 -8 12 -37 12 -64 1 -27 -1 -44 -3 -38
-3 10 -40 -61 -44 -86 -1 -5 -5 -12 -8 -15 -15 -13 -61 -111 -56 -117 4 -3 7
-1 7 5 0 7 8 12 18 12 15 -1 15 -2 -3 -13 -11 -6 -22 -12 -25 -12 -3 0 -10 -4
-17 -8 -6 -4 -34 -2 -62 5 -62 14 -64 24 -18 116 19 37 36 84 40 104 l6 38
-24 -18 c-14 -9 -25 -23 -25 -29 0 -14 -20 -19 -20 -5 0 4 16 48 35 97 49 125
60 166 44 175 -15 10 41 51 171 127 52 31 112 67 132 80 21 12 46 23 55 22 16
0 16 -1 -1 -8 -14 -5 -16 -10 -8 -15 7 -4 17 -4 24 0 12 8 7 -4 -24 -48 -20
-29 -23 -48 -8 -48 6 0 10 7 8 16 -2 10 3 19 11 22 9 3 11 0 6 -8 -5 -9 -4
-11 4 -6 6 4 9 12 6 17 -4 5 3 9 15 9 11 0 36 7 56 15 28 12 44 12 83 3 27 -6
57 -8 67 -3 29 11 -56 34 -108 28 -36 -4 -45 -1 -56 16 -12 20 -10 21 36 21
26 0 75 -7 107 -15 107 -28 105 -32 105 165 0 98 -4 170 -9 170 -5 0 -12 -8
-14 -17 -3 -10 -5 8 -6 39 -1 74 -34 161 -78 207 -36 38 -79 111 -65 111 4 0
19 -8 32 -17 14 -10 27 -18 30 -18 5 0 55 -55 89 -100 l24 -30 -7 28 c-4 16
-18 47 -32 69 -19 29 -22 43 -14 52 17 21 -9 115 -37 133 -13 9 -23 21 -23 28
0 7 -8 23 -18 36 -10 13 -26 44 -35 69 -9 25 -30 65 -47 90 -43 65 -46 60 56
108 27 12 73 35 101 50 l53 27 0 73 0 72 -36 -15 c-52 -22 -60 -19 -26 10 17
14 36 24 44 23 11 -3 13 143 15 822 l3 824 -75 -74 c-41 -41 -77 -71 -81 -67
-4 3 4 15 17 26 13 11 19 20 14 21 -14 0 -58 -30 -68 -47 -4 -7 -22 -20 -38
-29 -29 -14 -31 -14 -27 2 1 9 11 18 20 20 9 1 27 11 39 23 13 12 26 21 31 21
4 0 8 5 8 10 0 18 -17 11 -49 -19 -32 -30 -32 -30 -52 -10 -10 10 -19 25 -19
32 0 6 9 1 20 -13 15 -20 21 -23 31 -12 11 10 10 12 -2 12 -8 0 -20 9 -27 20
-7 11 -8 20 -3 20 5 0 11 -5 13 -12 6 -16 39 -20 66 -6 18 9 25 9 31 0 6 -10
11 -10 20 2 19 23 20 50 2 59 -9 4 1 5 22 1 23 -3 37 -1 33 4 -3 5 12 14 34
21 l40 12 0 345 0 346 -26 31 c-18 22 -22 32 -13 38 7 4 17 5 23 3 7 -3 13 7
14 21 2 28 0 29 -26 16 -61 -32 -172 -81 -181 -81 -6 0 -20 -6 -31 -12 -15
-10 -22 -10 -32 0 -9 9 -7 12 14 12 24 0 27 5 36 60 8 40 21 72 41 97 29 37
82 136 95 181 9 27 22 28 36 3 13 -25 13 -27 -6 -45 -13 -13 -13 -16 -1 -16 8
0 20 -7 27 -15 24 -29 30 -14 30 70 0 84 0 85 -27 91 -44 9 -93 37 -109 62
-15 23 -10 67 6 57 14 -8 61 17 56 30 -2 7 12 20 31 29 34 16 35 17 18 36 -10
11 -15 20 -10 20 4 0 3 6 -3 13 -6 6 -12 17 -14 22 -1 6 -30 10 -63 10 -48 0
-64 -4 -84 -23z m44 -42 c-28 -12 -45 -12 -45 0 0 6 15 10 33 9 27 0 29 -2 12
-9z m-1295 -250 c0 -5 -5 -10 -11 -10 -5 0 -7 5 -4 10 3 6 8 10 11 10 2 0 4
-4 4 -10z m38 -32 c-13 -3 -16 -7 -8 -7 13 -1 13 -2 0 -11 -8 -5 -13 -10 -10
-11 22 -4 49 -5 45 -1 -3 3 10 16 28 29 l32 24 12 -48 c6 -26 15 -58 18 -70 6
-18 3 -23 -10 -23 -12 0 -15 -5 -11 -16 3 -9 6 -22 6 -30 0 -9 5 -12 10 -9 6
3 13 -1 16 -9 3 -9 10 -16 16 -16 5 0 7 4 4 8 -2 4 -1 14 4 22 6 10 12 11 22
2 8 -6 24 -9 36 -5 19 4 21 2 15 -13 -6 -17 -5 -18 12 -4 17 14 18 13 11 -5
-16 -39 -19 -58 -9 -52 5 3 10 0 10 -8 0 -8 -2 -15 -4 -15 -10 0 -43 38 -52
60 -9 24 -10 24 -10 3 -1 -25 -16 -31 -25 -10 -3 6 -3 1 1 -13 3 -14 6 -31 6
-37 0 -15 7 -16 26 -4 8 5 21 5 30 1 9 -5 31 -16 49 -24 30 -14 33 -14 28 0
-3 8 -2 12 4 9 6 -3 10 -1 10 5 0 6 5 8 12 4 9 -6 9 -9 0 -12 -7 -2 -12 -8
-12 -13 0 -4 7 -6 15 -3 9 4 15 0 15 -10 0 -19 11 -21 28 -4 9 9 15 10 20 2 4
-6 15 -10 24 -9 9 2 23 -7 31 -18 15 -24 12 -51 -5 -41 -7 4 -8 2 -4 -5 4 -6
-5 -33 -22 -59 -16 -26 -37 -60 -47 -77 -9 -16 -14 -23 -12 -14 3 9 -1 16 -7
16 -8 0 -12 -11 -10 -28 2 -18 -7 -41 -26 -68 -17 -22 -30 -45 -30 -50 0 -6
-4 -12 -9 -15 -5 -4 -7 4 -3 16 4 16 2 19 -8 13 -10 -6 -11 -1 -6 21 5 21 4
25 -4 14 -9 -13 -11 -13 -21 0 -8 12 -9 9 -4 -10 3 -14 11 -35 18 -48 8 -17 8
-32 -3 -60 -18 -51 -40 -82 -56 -82 -12 0 -12 6 1 36 22 52 19 64 -12 64 -24
1 -26 2 -12 13 17 13 17 34 1 63 -8 14 -5 25 10 47 11 15 17 31 14 34 -3 4 2
15 11 25 16 18 15 19 -6 34 -18 13 -21 22 -15 47 3 18 11 38 17 45 7 9 5 18
-6 30 -10 11 -14 26 -10 40 4 18 1 24 -16 29 -13 3 -20 11 -17 18 10 26 -7 23
-30 -4 -13 -16 -24 -41 -24 -55 0 -19 -5 -26 -19 -26 -14 0 -24 13 -34 43 -14
37 -16 39 -16 15 -1 -30 -15 -37 -25 -13 -3 8 -2 67 1 131 4 83 3 115 -5 111
-5 -4 -13 -1 -15 5 -4 10 -8 9 -16 -2 -16 -23 -14 5 4 68 15 48 17 51 36 39
19 -12 19 -12 -3 -19z m1141 -9 c-19 -12 -49 -11 -49 0 0 10 40 20 54 13 4 -3
2 -8 -5 -13z m-1311 -50 c-32 -18 -99 -39 -92 -28 9 15 64 38 89 38 18 0 18
-1 3 -10z m1152 -100 c7 -11 10 -22 8 -23 -6 -6 -92 -25 -96 -22 -6 7 50 66
64 66 7 0 18 -9 24 -21z m198 -34 c-37 -25 -70 -45 -73 -45 -3 0 -5 13 -5 30
0 30 3 32 95 53 49 11 46 4 -17 -38z m-288 -80 c0 -36 -8 -43 -27 -24 -8 8 -8
18 -1 35 16 34 28 30 28 -11z m40 -41 c0 -6 -7 -11 -15 -11 -16 0 -18 7 -9 32
5 13 8 14 15 3 5 -7 9 -18 9 -24z m174 10 c3 -8 1 -24 -4 -34 -5 -10 -8 -25
-5 -32 3 -8 -7 -18 -27 -26 -67 -26 -220 -73 -224 -69 -12 12 47 62 119 101
45 25 91 52 102 60 26 20 31 20 39 0z m-177 -50 c0 -8 -7 -14 -15 -12 -23 4
-25 24 -4 25 10 1 19 -5 19 -13z m-77 -64 c-8 -5 -19 -10 -25 -10 -5 0 -3 5 5
10 8 5 20 10 25 10 6 0 3 -5 -5 -10z m-1790 -4 c0 -3 -4 -8 -10 -11 -5 -3 -10
-1 -10 4 0 6 5 11 10 11 6 0 10 -2 10 -4z m1098 -64 c24 -34 13 -44 -17 -14
-28 26 -52 68 -44 75 7 8 25 -10 61 -61z m855 -9 c-13 -43 -28 -82 -32 -86 -9
-9 -41 2 -41 15 0 5 -4 6 -10 3 -5 -3 -10 0 -10 7 0 7 -12 31 -26 52 -20 29
-23 38 -10 33 9 -4 16 -2 16 3 0 6 7 10 15 10 14 0 16 -4 19 -37 2 -23 16 -18
31 10 8 15 10 25 5 22 -6 -4 -10 -2 -10 3 0 6 7 12 15 16 8 3 15 0 15 -6 0 -7
9 -2 20 10 12 12 22 22 24 22 2 0 -7 -35 -21 -77z m-953 36 c0 -5 4 -8 9 -5 4
3 16 -3 26 -14 16 -18 16 -20 2 -20 -24 0 -22 -10 24 -94 40 -74 43 -96 13
-96 -8 0 -23 -14 -33 -31 l-19 -31 -17 74 c-22 94 -32 228 -16 228 6 0 11 -5
11 -11z m1105 -14 c-4 -11 -9 -33 -12 -49 l-6 -29 -23 39 c-29 47 -29 52 -6
56 42 8 53 4 47 -17z m-2032 0 c-3 -9 -8 -14 -10 -11 -3 3 -2 9 2 15 9 16 15
13 8 -4z m71 -28 c-11 -6 -32 -19 -49 -30 l-30 -20 34 36 c20 21 39 33 48 30
13 -5 12 -8 -3 -16z m1729 -122 c7 3 18 1 25 -3 10 -7 9 -20 -8 -66 -20 -53
-57 -102 -69 -91 -2 3 4 12 15 21 10 8 13 12 5 8 -11 -5 -13 0 -8 27 3 19 9
61 14 94 5 37 9 50 11 33 2 -16 8 -25 15 -23z m-2418 -44 c3 -5 0 -13 -6 -17
-7 -4 -9 -3 -5 4 3 5 0 13 -6 15 -9 4 -10 6 -1 6 6 1 14 -3 18 -8z m1603 -103
c-3 -7 -13 -15 -24 -17 -16 -3 -17 -1 -5 13 16 19 34 21 29 4z m-36 -45 c-5
-10 -6 -27 -1 -38 7 -17 8 -17 8 8 1 15 6 27 12 27 5 0 7 5 4 10 -3 6 -1 10 4
10 6 0 11 -7 11 -15 0 -8 4 -15 9 -15 5 0 8 -14 6 -30 -3 -18 0 -28 5 -25 6 4
10 14 10 23 1 16 1 16 11 0 7 -13 0 -40 -31 -110 -27 -62 -39 -82 -36 -59 4
26 1 34 -13 38 -16 4 -17 9 -7 36 6 18 15 38 20 45 4 7 5 16 2 19 -3 4 -6 0
-7 -8 -1 -8 -7 4 -14 26 -11 36 -6 75 11 75 2 0 1 -8 -4 -17z m1309 -152 c-18
-33 -72 -71 -101 -71 -16 0 -36 -3 -46 -7 -29 -11 -6 15 29 33 21 12 32 13 35
5 2 -6 8 -11 14 -11 6 0 7 7 4 16 -3 8 -2 12 3 9 6 -3 13 1 18 8 7 11 40 36
51 37 1 0 -2 -9 -7 -19z m-1328 -44 c4 3 7 -1 7 -11 0 -14 -4 -15 -20 -6 -11
6 -20 16 -20 22 0 7 4 7 13 -1 8 -6 17 -8 20 -4z m-46 -3 c-3 -3 -12 -4 -19
-1 -8 3 -5 6 6 6 11 1 17 -2 13 -5z m43 -125 c0 -15 -5 -31 -10 -34 -7 -4 -9
3 -6 21 3 15 0 36 -6 48 -10 19 -10 20 5 7 10 -7 17 -26 17 -42z m1223 -14
c-7 -21 -13 -19 -13 6 0 11 4 18 10 14 5 -3 7 -12 3 -20z m-430 -150 c2 -5 7
-16 11 -24 6 -10 3 -19 -10 -30 -10 -9 -21 -25 -22 -36 -2 -11 -9 -26 -14 -32
-7 -9 -7 -13 1 -13 6 0 10 -16 10 -37 -2 -35 23 -130 72 -280 19 -57 18 -96
-2 -76 -10 10 -82 229 -98 298 -6 28 -10 65 -8 83 3 17 1 32 -3 32 -9 0 -13
247 -4 261 5 9 59 -107 67 -146z m350 138 c-7 -2 -19 -2 -25 0 -7 3 -2 5 12 5
14 0 19 -2 13 -5z m-773 -22 c0 -6 -4 -13 -10 -16 -5 -3 -10 -1 -10 6 0 7 -3
10 -6 6 -3 -3 -3 -15 1 -27 6 -20 7 -21 21 -3 8 10 -1 -15 -20 -56 -32 -67
-57 -108 -44 -71 4 10 0 16 -12 16 -16 0 -16 -2 -3 -23 14 -21 13 -26 -6 -58
-12 -20 -21 -43 -21 -51 0 -8 -10 -14 -22 -14 -21 -1 -21 -2 -5 -11 24 -14 15
-54 -25 -126 -29 -51 -47 -70 -34 -36 4 9 9 37 11 62 8 78 29 136 48 133 9 -2
17 2 17 8 0 5 -6 9 -12 8 -8 -2 -12 5 -10 15 2 13 49 119 70 158 1 4 -3 13
-10 20 -15 17 -17 51 -3 61 15 11 85 10 85 -1z m664 -72 c-16 -28 -41 -57 -56
-65 -32 -17 -34 -13 -11 24 14 23 81 90 91 92 2 0 -9 -23 -24 -51z m-1894 -19
c-40 -34 -44 -35 -59 -16 -9 11 -8 15 5 20 10 4 21 1 26 -6 4 -8 8 -9 8 -2 0
6 10 16 23 22 34 17 34 14 -3 -18z m1566 -116 c5 -72 4 -94 -6 -94 -7 0 -10
-7 -7 -15 4 -8 2 -17 -3 -20 -14 -9 -12 -86 5 -190 19 -116 19 -126 -3 -90
-31 50 -48 296 -32 440 12 108 13 114 26 90 8 -15 17 -69 20 -121z m-416 132
c0 -3 -4 -8 -10 -11 -5 -3 -10 -1 -10 4 0 6 5 11 10 11 6 0 10 -2 10 -4z m348
-113 c-16 -97 -18 -138 -11 -231 4 -63 5 -118 2 -124 -14 -22 -21 106 -17 267
4 142 7 167 23 185 10 11 19 20 20 20 1 0 -7 -53 -17 -117z m547 78 c-6 -5
-28 -11 -50 -14 l-40 -6 30 14 c34 16 75 20 60 6z m-3212 -96 c6 -27 5 -28 -5
-7 -6 12 -17 22 -25 22 -11 0 -11 3 -1 14 16 17 24 10 31 -29z m-152 -18 l-23
-22 17 28 c10 15 20 25 23 22 3 -3 -5 -16 -17 -28z m183 -73 c15 -36 16 -48 6
-57 -10 -10 -12 -7 -7 10 3 14 -2 32 -14 47 -19 25 -25 46 -11 46 4 0 15 -21
26 -46z m1576 -6 c0 -6 -12 -31 -26 -55 -16 -28 -23 -51 -19 -64 5 -15 2 -22
-14 -26 -12 -3 -21 -12 -21 -19 0 -8 -10 -19 -22 -23 -34 -14 -81 -68 -66 -75
7 -3 3 -3 -9 -1 -12 3 -24 1 -28 -4 -9 -15 -83 -33 -105 -26 -11 4 -27 14 -37
23 -9 9 -19 17 -22 17 -3 1 -16 7 -28 15 -16 10 -21 21 -17 36 5 18 1 23 -18
26 -12 2 15 9 62 15 88 12 116 29 106 66 -2 9 -1 15 4 12 4 -3 15 6 24 20 9
14 23 25 31 25 8 0 15 5 15 11 0 5 4 8 8 5 5 -3 38 3 73 13 77 22 109 25 109
9z m-377 -25 c-7 -2 -19 -2 -25 0 -7 3 -2 5 12 5 14 0 19 -2 13 -5z m-666 -9
c-3 -3 -12 -4 -19 -1 -8 3 -5 6 6 6 11 1 17 -2 13 -5z m1822 -134 c-13 -168
-20 -175 -14 -15 3 72 5 137 5 145 0 9 3 11 10 4 6 -6 6 -53 -1 -134z m-1099
126 c0 -2 -8 -10 -17 -17 -16 -13 -17 -12 -4 4 13 16 21 21 21 13z m587 -11
c9 -25 -4 -29 -17 -6 -7 15 -7 21 0 21 6 0 13 -7 17 -15z m-707 -35 c0 -5 -8
-10 -17 -10 -15 0 -16 2 -3 10 19 12 20 12 20 0z m163 -14 c4 -10 1 -13 -8 -9
-8 3 -12 9 -9 14 7 12 11 11 17 -5z m1143 -100 c-4 -19 -12 -38 -18 -42 -7 -5
-9 5 -3 32 4 21 9 43 12 47 10 17 15 -3 9 -37z m106 -1 c4 -38 -6 -44 -38 -20
-19 15 -19 15 5 35 13 11 24 20 26 20 2 0 5 -16 7 -35z m-1584 -16 c68 -43 79
-46 152 -36 29 4 40 3 30 -3 -12 -7 -7 -12 20 -25 25 -12 28 -15 10 -11 -24 5
-24 4 -6 -9 10 -8 23 -12 28 -9 11 7 31 -17 55 -64 12 -25 18 -30 24 -20 16
24 -2 -56 -23 -103 -19 -43 -19 -48 -4 -78 9 -17 21 -31 27 -31 8 0 8 -4 1
-12 -5 -7 -13 -27 -17 -45 -5 -27 -12 -33 -41 -39 -18 -3 -32 -9 -30 -13 8
-12 -36 -10 -63 3 -44 21 -135 39 -184 35 -32 -3 -47 0 -47 8 0 6 4 14 9 18 5
3 17 27 26 54 9 27 23 55 31 62 10 8 13 22 9 43 -3 17 -3 27 2 21 4 -5 19 -12
33 -13 14 -2 40 -13 58 -24 54 -33 51 -10 -7 43 -29 27 -56 50 -60 50 -29 6
-51 5 -51 -3 0 -6 -7 -8 -15 -5 -8 4 -17 2 -20 -3 -4 -6 2 -10 13 -10 14 0 19
-8 20 -34 2 -40 -11 -53 -58 -61 -19 -3 -54 -15 -76 -27 -34 -17 -45 -18 -63
-8 -20 10 -22 17 -16 68 3 31 10 66 15 77 4 11 16 58 25 105 9 47 19 91 21 97
4 14 60 41 88 42 10 1 48 -18 84 -40z m-311 25 c-3 -3 -12 -4 -19 -1 -8 3 -5
6 6 6 11 1 17 -2 13 -5z m-734 -94 c6 -76 26 -142 40 -133 6 3 7 1 3 -5 -3 -6
19 -72 49 -146 59 -146 69 -179 29 -103 -13 26 -29 47 -35 47 -6 0 -9 7 -5 15
3 9 -3 24 -14 35 -11 11 -20 30 -20 41 0 25 -42 139 -51 139 -10 0 -6 -35 5
-43 7 -6 4 -7 -7 -3 -10 3 -23 6 -28 6 -5 0 -9 5 -9 11 0 5 4 8 8 5 4 -2 8 4
8 14 0 17 -3 17 -27 4 -24 -12 -27 -19 -24 -53 4 -54 15 -82 27 -75 7 4 8 2 4
-4 -4 -7 5 -35 19 -63 14 -29 24 -54 21 -56 -7 -7 -44 61 -77 142 -17 44 -33
83 -36 87 -2 4 2 5 10 2 9 -3 28 14 53 48 35 49 38 58 38 116 -1 78 12 60 19
-28z m1568 67 c-10 -9 -11 -8 -5 6 3 10 9 15 12 12 3 -3 0 -11 -7 -18z m-1672
-36 c36 15 67 26 69 24 7 -7 -33 -70 -70 -112 -21 -23 -39 -39 -42 -35 -9 15
-66 163 -65 170 0 4 10 -11 21 -34 l21 -41 66 28z m186 -62 c63 -143 127 -301
123 -305 -2 -2 -21 38 -42 89 -21 51 -61 141 -87 200 -43 96 -59 140 -44 126
2 -3 25 -52 50 -110z m1068 74 c-7 -2 -19 -2 -25 0 -7 3 -2 5 12 5 14 0 19 -2
13 -5z m1092 -45 c-6 -26 -11 -61 -21 -127 -7 -52 -23 -90 -24 -57 0 18 27
168 35 194 7 21 16 13 10 -10z m172 -80 c-3 -7 -5 -2 -5 12 0 14 2 19 5 13 2
-7 2 -19 0 -25z m-2050 16 c-3 -3 -12 -4 -19 -1 -8 3 -5 6 6 6 11 1 17 -2 13
-5z m38 -2 c-16 -12 -11 -36 10 -49 28 -17 35 -16 28 5 -6 15 -5 15 11 3 29
-24 2 -38 -36 -19 -24 11 -33 22 -34 42 -1 18 3 26 15 26 9 0 12 -3 6 -8z
m-635 -84 c39 -79 51 -126 30 -113 -5 3 -10 2 -10 -4 0 -5 -12 -9 -26 -8 -15
1 -29 -4 -32 -12 -3 -8 0 -11 7 -7 12 8 15 -6 4 -17 -3 -4 -15 8 -26 26 -35
57 -97 175 -97 185 0 5 11 7 25 4 32 -6 78 6 70 18 -3 6 -1 10 5 10 6 0 29
-37 50 -82z m660 62 c0 -5 -4 -10 -10 -10 -5 0 -10 5 -10 10 0 6 5 10 10 10 6
0 10 -4 10 -10z m-781 -135 c1 -15 -46 70 -53 97 -4 13 7 -2 23 -32 17 -30 30
-59 30 -65z m327 60 c10 -8 14 -15 9 -15 -6 0 -16 5 -23 12 -9 9 -12 8 -12 -4
0 -9 -4 -19 -8 -22 -7 -4 -8 25 -3 42 2 6 19 1 37 -13z m546 -30 c-2 -14 -8
-25 -13 -25 -12 0 -11 7 1 31 14 26 18 24 12 -6z m1895 -47 c-2 -13 -4 -5 -4
17 -1 22 1 32 4 23 2 -10 2 -28 0 -40z m-1922 15 c17 -10 17 -11 -8 -10 -20 2
-27 7 -27 22 0 12 3 16 8 9 4 -6 16 -16 27 -21z m-120 7 c3 -5 1 -10 -4 -10
-6 0 -11 5 -11 10 0 6 2 10 4 10 3 0 8 -4 11 -10z m72 -16 c-3 -3 -12 -4 -19
-1 -8 3 -5 6 6 6 11 1 17 -2 13 -5z m-777 -24 c6 -11 8 -20 6 -20 -3 0 -10 9
-16 20 -6 11 -8 20 -6 20 3 0 10 -9 16 -20z m750 1 c0 -5 -7 -12 -16 -15 -14
-5 -15 -4 -4 9 14 17 20 19 20 6z m2298 -49 c-10 -2 -18 -9 -18 -16 0 -7 -10
-21 -21 -32 -28 -25 -82 -104 -72 -104 4 0 0 -5 -10 -11 -9 -5 -22 -7 -29 -3
-7 4 -8 3 -4 -4 4 -6 2 -21 -4 -33 -11 -20 -13 -20 -31 -4 -24 23 -105 145
-102 156 2 5 -4 6 -12 3 -11 -4 -15 1 -15 17 0 20 2 21 11 9 8 -12 10 -10 5 9
-4 20 8 12 57 -37 35 -34 67 -62 72 -62 6 1 44 29 85 64 47 39 81 61 90 57 12
-4 12 -6 -2 -9z m-3014 -18 c3 -8 2 -12 -4 -9 -6 3 -10 10 -10 16 0 14 7 11
14 -7z m3211 -15 c-3 -9 -27 -25 -53 -36 -26 -12 -76 -38 -112 -59 -36 -20
-63 -35 -60 -32 14 16 102 78 142 102 26 15 52 34 59 42 14 17 32 4 24 -17z
m-2676 -64 c0 -5 -6 1 -14 15 -8 14 -14 30 -14 35 0 6 6 -1 14 -15 8 -14 14
-29 14 -35z m-459 -70 c0 -5 -11 10 -25 34 -14 23 -25 46 -25 50 1 10 50 -73
50 -84z m251 9 c16 -37 28 -69 26 -71 -2 -2 -18 28 -35 67 -17 38 -29 70 -26
70 3 0 18 -30 35 -66z m243 -24 c3 -14 -3 -7 -13 15 -11 22 -20 45 -20 50 0
15 26 -37 33 -65z m923 4 c-3 -3 -12 -4 -19 -1 -8 3 -5 6 6 6 11 1 17 -2 13
-5z m23 -24 c-29 -25 -42 -30 -73 -26 -26 3 -44 -1 -60 -15 -19 -16 -20 -18
-4 -19 10 0 16 4 13 9 -3 5 1 11 9 14 10 4 12 1 8 -11 -6 -15 -5 -15 10 -3 9
7 17 9 17 4 0 -5 -11 -15 -24 -22 -18 -10 -29 -10 -45 -2 -31 17 -26 27 23 56
31 18 52 24 69 20 15 -4 37 0 54 9 41 22 41 20 3 -14z m1390 -15 c-37 -27 -40
-29 -40 -17 0 9 50 41 64 42 6 0 -5 -11 -24 -25z m-2267 -118 c3 -9 4 -17 1
-17 -6 0 -54 107 -53 118 0 7 40 -70 52 -101z m-269 77 c3 -8 2 -12 -4 -9 -6
3 -10 10 -10 16 0 14 7 11 14 -7z m-335 -51 c-19 -45 -49 -88 -37 -53 21 58
41 100 49 100 4 0 -1 -21 -12 -47z m364 -13 c3 -11 2 -18 -3 -15 -4 3 -10 14
-13 25 -3 11 -2 18 3 15 4 -3 10 -14 13 -25z m1174 -5 c24 -4 46 -11 49 -17 4
-6 -1 -8 -15 -3 -18 5 -21 2 -21 -24 0 -17 -5 -31 -11 -31 -5 0 -24 -15 -42
-34 -42 -45 -68 -52 -92 -26 -17 18 -17 23 -5 31 12 8 11 9 -5 7 -15 -2 -19 2
-17 16 2 12 -1 15 -8 11 -7 -4 -16 -1 -21 6 -14 22 -10 33 6 19 10 -9 15 -9
15 -1 0 6 9 11 20 11 11 0 23 7 26 15 4 9 14 13 23 11 9 -3 23 -1 31 5 12 8 9
9 -10 4 -24 -6 -24 -5 -6 9 12 10 24 12 30 7 6 -5 30 -12 53 -16z m-1126 -25
c-12 -11 -28 -17 -35 -13 -7 5 -4 9 9 11 11 2 24 8 30 13 5 5 11 9 15 9 3 -1
-6 -9 -19 -20z m539 10 c0 -5 -5 -10 -11 -10 -5 0 -7 5 -4 10 3 6 8 10 11 10
2 0 4 -4 4 -10z m-472 -57 c-8 -8 -26 -15 -39 -15 -31 -2 -79 -35 -73 -51 2
-7 -12 -21 -33 -32 -36 -20 -44 -21 -42 -9 0 4 -4 10 -10 13 -6 4 4 18 22 33
29 22 33 23 33 7 0 -9 -3 -16 -7 -13 -4 2 -9 -3 -13 -11 -6 -18 -1 -19 25 -4
11 5 17 14 14 19 -9 15 46 58 83 65 17 3 32 10 32 16 0 6 5 7 11 3 8 -4 7 -11
-3 -21z m729 -24 c1 -14 0 -17 -3 -6 -3 9 -10 17 -15 17 -5 0 -9 5 -9 11 0 22
25 2 27 -22z m-30 -21 c-3 -8 -6 -5 -6 6 -1 11 2 17 5 13 3 -3 4 -12 1 -19z
m-1288 -80 c1 -4 -13 -15 -29 -23 l-31 -16 22 43 c19 38 23 41 30 23 4 -11 8
-23 8 -27z m1315 17 c3 -8 1 -15 -4 -15 -6 0 -10 7 -10 15 0 8 2 15 4 15 2 0
6 -7 10 -15z m-41 -30 c1 -5 -6 -11 -15 -13 -11 -2 -18 3 -18 13 0 17 30 18
33 0z m332 -25 c-3 -5 -12 -10 -18 -10 -7 0 -6 4 3 10 19 12 23 12 15 0z
m-765 -44 c0 -8 -4 -17 -9 -21 -6 -3 -9 4 -8 15 1 23 17 28 17 6z m-180 -71
c0 -8 -2 -15 -4 -15 -2 0 -6 7 -10 15 -3 8 -1 15 4 15 6 0 10 -7 10 -15z
m-551 -62 c-31 -33 -48 -58 -41 -61 6 -2 12 -11 12 -19 0 -13 -3 -13 -16 -2
-23 19 -9 57 36 101 61 60 69 44 9 -19z m127 30 c56 -36 62 -52 19 -48 -23 2
-38 -2 -47 -13 -12 -15 -11 -16 5 -3 28 22 19 -3 -12 -33 -25 -24 -29 -25 -35
-10 -5 13 -9 15 -18 6 -17 -17 -28 -15 -37 10 -9 24 15 62 32 51 6 -4 7 -1 2
6 -6 11 29 61 43 61 2 0 24 -12 48 -27z m1402 -23 c7 -11 11 -20 9 -20 -2 0
-12 9 -22 20 -10 11 -14 20 -9 20 5 0 15 -9 22 -20z m523 -106 c7 -16 13 -73
14 -127 2 -84 0 -99 -15 -107 -15 -8 -18 -4 -24 28 -3 20 -5 105 -5 187 1 119
3 139 10 99 5 -28 14 -64 20 -80z m344 33 c-4 -25 -13 -48 -21 -51 -19 -7 -18
10 3 61 22 51 27 49 18 -10z m-2249 -13 c-21 -18 -42 -31 -46 -29 -12 8 -32
-23 -24 -37 5 -10 4 -10 -6 -1 -16 15 3 39 64 85 52 38 61 25 12 -18z m3194
36 c8 -5 11 -10 5 -10 -5 0 -17 5 -25 10 -8 5 -10 10 -5 10 6 0 17 -5 25 -10z
m70 -28 c29 -14 35 -23 37 -52 l2 -35 -12 34 c-8 21 -26 40 -47 52 -44 23 -27
24 20 1z m-3360 -18 c0 -8 -5 -12 -10 -9 -6 4 -8 11 -5 16 9 14 15 11 15 -7z
m307 -99 c9 -25 -4 -29 -17 -6 -7 15 -7 21 0 21 6 0 13 -7 17 -15z m373 -34
c-5 -11 -15 -23 -22 -27 -7 -5 -8 -2 -3 7 21 37 44 55 25 20z m685 -1 c3 -5
-1 -10 -9 -10 -9 0 -16 5 -16 10 0 6 4 10 9 10 6 0 13 -4 16 -10z m-1378 -205
c-37 -25 -48 -24 -24 3 10 10 15 21 12 24 -3 3 6 3 19 1 l26 -5 -33 -23z
m2997 -10 c-4 -8 -10 -15 -15 -15 -4 0 -6 7 -3 15 4 8 10 15 15 15 4 0 6 -7 3
-15z m126 -10 c7 -8 9 -15 6 -15 -4 0 -14 7 -22 15 -9 8 -11 15 -6 15 5 0 15
-7 22 -15z m-2460 -49 c0 -14 -8 -27 -17 -31 -15 -5 -16 -4 -5 6 6 7 12 21 12
31 0 10 2 18 5 18 3 0 5 -11 5 -24z m38 11 c18 7 17 5 -10 -16 -16 -12 -18
-11 -17 10 0 13 3 19 5 12 3 -7 13 -9 22 -6z m-18 -69 c0 -5 0 -12 0 -18 0 -5
-8 -10 -18 -10 -11 0 -18 7 -18 19 0 11 7 18 18 17 10 -1 18 -4 18 -8z m-56
-24 c3 -8 -1 -14 -8 -14 -8 0 -21 -3 -30 -6 -11 -4 -16 0 -16 14 0 33 42 37
54 6z m2487 -2 l31 -28 -76 -18 c-62 -14 -81 -24 -106 -52 -16 -19 -30 -31
-30 -27 0 5 -13 14 -30 20 -17 6 -30 19 -30 28 0 9 4 14 8 11 5 -3 7 17 4 44
l-5 50 102 0 c96 0 102 -1 132 -28z m358 -50 c25 -52 7 -39 -28 20 -15 26 -18
36 -9 33 8 -3 25 -27 37 -53z m-45 14 c7 -18 17 -48 20 -67 6 -30 4 -29 -13
11 -24 59 -34 90 -27 90 3 0 12 -15 20 -34z m-573 7 c13 -16 12 -17 -3 -4 -17
13 -22 21 -14 21 2 0 10 -8 17 -17z m322 -64 c4 -16 3 -18 -9 -8 -7 6 -11 15
-8 20 8 13 11 11 17 -12z m-348 -9 c4 -7 -3 -8 -20 -4 l-26 6 23 -46 c21 -43
38 -59 38 -35 0 5 4 7 10 4 6 -3 7 1 4 9 -3 9 -10 14 -14 11 -5 -3 -7 2 -6 10
5 31 16 26 38 -19 21 -43 21 -49 7 -74 -8 -15 -26 -32 -39 -39 -24 -12 -24
-13 -3 -13 13 0 30 11 40 26 50 72 83 80 81 18 -1 -25 5 -39 20 -50 12 -8 22
-23 22 -32 0 -12 -3 -13 -12 -4 -7 7 -17 8 -27 3 -9 -5 -20 -11 -26 -13 -5 -1
-9 -13 -7 -25 1 -13 -2 -23 -8 -23 -5 0 -10 -13 -10 -30 0 -24 4 -30 21 -30
14 0 19 -5 16 -14 -3 -7 8 -27 25 -42 17 -16 28 -24 25 -18 -4 7 5 9 24 6 21
-3 40 2 59 17 16 11 31 17 34 12 3 -5 -1 -11 -9 -15 -8 -3 -15 -10 -15 -16 0
-6 5 -8 10 -5 16 10 12 -11 -5 -25 -12 -10 -18 -10 -32 1 -16 13 -17 12 -5 -3
12 -14 10 -19 -12 -33 -42 -28 -80 -12 -117 48 -17 29 -49 73 -70 98 -33 40
-79 132 -79 159 0 5 8 7 18 3 11 -3 8 1 -7 12 -47 35 -69 143 -33 164 22 14
59 14 67 1z m228 -129 c48 -45 44 -63 -8 -38 -42 20 -59 58 -49 107 l8 35 4
-33 c2 -23 16 -44 45 -71z m-1756 74 c2 -5 -10 -9 -27 -9 -44 2 -47 3 -30 14
18 12 52 9 57 -5z m2166 -5 c3 -11 1 -18 -4 -14 -5 3 -9 12 -9 20 0 20 7 17
13 -6z m-122 -12 c16 2 29 -1 29 -7 0 -6 -4 -11 -9 -11 -5 0 -11 -7 -13 -16
-2 -11 -12 -5 -38 22 -19 21 -27 32 -16 24 10 -8 31 -13 47 -12z m46 -10 c-3
-7 -5 -2 -5 12 0 14 2 19 5 13 2 -7 2 -19 0 -25z m-277 3 c0 -3 -11 -6 -24 -6
-13 0 -22 5 -19 11 4 12 43 7 43 -5z m-1810 -11 c0 -5 -2 -10 -4 -10 -3 0 -8
5 -11 10 -3 6 -1 10 4 10 6 0 11 -4 11 -10z m-35 -10 c3 -5 1 -10 -4 -10 -6 0
-11 5 -11 10 0 6 2 10 4 10 3 0 8 -4 11 -10z m1865 -66 c0 -12 -46 17 -48 30
-3 14 1 13 22 -5 14 -12 26 -24 26 -25z m60 -4 c-7 -12 -16 -18 -23 -13 -7 4
-7 0 2 -10 9 -11 10 -17 2 -17 -6 0 -11 -9 -11 -20 0 -25 -54 -80 -78 -80 -9
0 -33 3 -53 6 l-37 6 17 29 c9 16 29 33 44 39 16 5 26 14 22 20 -3 6 4 10 17
10 13 0 34 7 46 16 12 8 26 13 31 10 5 -3 11 1 15 9 3 8 8 15 11 15 3 0 1 -9
-5 -20z m-2050 -4 c0 -3 -4 -8 -10 -11 -5 -3 -10 -1 -10 4 0 6 5 11 10 11 6 0
10 -2 10 -4z m133 -41 c-3 -9 -8 -14 -10 -11 -3 3 -2 9 2 15 9 16 15 13 8 -4z
m19 -20 c-2 -14 -8 -22 -13 -19 -5 3 -5 14 1 25 14 26 18 24 12 -6z m-53 -5
c12 0 21 -4 21 -10 0 -5 -20 -10 -44 -10 -32 0 -46 -5 -50 -17 -12 -30 37 -37
72 -10 13 10 15 6 6 -16 -4 -11 -17 -14 -47 -11 -22 2 -44 7 -48 11 -12 13 2
63 17 63 8 0 14 5 14 10 0 7 6 7 19 0 11 -5 29 -10 40 -10z m-13 -39 c-3 -5
-17 -8 -31 -8 -13 0 -22 3 -19 8 3 5 16 9 30 9 14 0 23 -4 20 -9z m2011 -28
c-3 -10 -5 -4 -5 12 0 17 2 24 5 18 2 -7 2 -21 0 -30z m-2112 17 c-3 -5 -11
-10 -16 -10 -6 0 -7 5 -4 10 3 6 11 10 16 10 6 0 7 -4 4 -10z m-129 -57 c-7
-7 -26 7 -26 19 0 6 6 6 15 -2 9 -7 13 -15 11 -17z m43 -1 c-5 -2 -6 -9 -3
-14 4 -7 2 -8 -4 -4 -7 4 -12 16 -12 27 0 16 2 18 14 7 8 -7 10 -15 5 -16z
m1451 -12 c0 -5 -4 -10 -9 -10 -6 0 -13 5 -16 10 -3 6 1 10 9 10 9 0 16 -4 16
-10z m-1510 -60 c-6 -12 -14 -20 -17 -17 -2 3 1 14 8 26 17 26 24 19 9 -9z
m2482 0 c67 -19 62 -35 -34 -100 -32 -22 -64 -38 -70 -34 -7 4 -8 3 -4 -4 4
-7 1 -12 -9 -12 -11 0 -15 5 -11 15 6 17 -9 21 -19 5 -8 -13 -65 -13 -65 1 0
6 9 8 21 4 18 -6 20 -5 10 14 -10 17 -9 21 4 21 18 0 20 16 3 24 -7 3 -2 3 12
0 15 -3 38 4 60 18 l35 22 -25 7 -25 7 25 1 c20 1 22 3 10 11 -21 13 33 13 82
0z m-2514 -22 c-2 -6 -14 -13 -27 -15 -14 -2 -20 1 -16 8 4 6 13 8 21 5 8 -3
14 -1 14 4 0 6 3 10 6 10 3 0 4 -5 2 -12z m2287 -8 c-27 -12 -43 -12 -25 0 8
5 22 9 30 9 10 0 8 -3 -5 -9z m-317 -32 c-13 -19 -13 -25 1 -50 15 -26 49 -35
44 -11 -1 5 8 10 20 9 12 -1 62 15 110 36 48 21 91 38 95 38 3 0 -27 -21 -68
-46 -41 -25 -95 -60 -120 -78 -47 -35 -173 -112 -226 -139 -36 -19 -50 -48
-62 -135 l-9 -64 24 29 c29 33 21 15 -19 -44 -45 -67 -170 -335 -175 -375 -14
-122 -19 -126 -26 -16 l-8 108 71 125 70 126 0 114 c0 70 4 115 10 115 6 0 10
8 10 19 0 13 14 24 48 36 26 10 73 31 106 47 57 29 58 30 54 66 -4 30 1 44 24
75 32 40 50 51 26 15z m-204 -25 c-3 -21 -8 -49 -11 -63 -5 -25 -5 -25 -14 -3
-5 14 -2 36 8 62 9 23 17 41 19 41 1 0 0 -17 -2 -37z m-722 9 c10 -4 -20 -7
-65 -7 -47 0 -96 -6 -115 -14 -18 -7 -35 -12 -37 -9 -3 3 16 12 42 21 49 16
144 21 175 9z m264 -60 c-6 -6 -26 43 -25 61 0 7 7 -3 15 -22 8 -18 13 -36 10
-39z m-205 40 c-7 -2 -18 1 -23 6 -8 8 -4 9 13 5 13 -4 18 -8 10 -11z m66 -8
c-3 -3 -12 -4 -19 -1 -8 3 -5 6 6 6 11 1 17 -2 13 -5z m1140 0 c-3 -3 -12 -4
-19 -1 -8 3 -5 6 6 6 11 1 17 -2 13 -5z m-1505 -26 c-14 -7 -20 -17 -17 -27 2
-9 0 -23 -6 -31 -8 -12 -9 -10 -4 7 3 12 1 24 -5 28 -17 10 8 35 34 34 21 0
21 -1 -2 -11z m246 -2 c-7 -8 -15 -12 -17 -11 -5 6 10 25 20 25 5 0 4 -6 -3
-14z m1229 8 c-3 -3 -12 -4 -19 -1 -8 3 -5 6 6 6 11 1 17 -2 13 -5z m-1279
-58 c-2 0 -14 -10 -28 -21 -15 -12 -20 -14 -12 -4 6 9 8 20 4 24 -4 5 -1 5 6
1 6 -4 12 -2 12 4 0 6 5 8 11 5 6 -4 9 -8 7 -9z m152 -1 l35 -13 -60 -2 c-33
-1 -52 -4 -42 -7 18 -5 18 -5 0 -19 -15 -11 -16 -15 -4 -23 12 -8 12 -18 -2
-68 -14 -52 -27 -144 -43 -306 -3 -31 -9 -55 -14 -52 -4 3 -4 22 1 42 5 21 6
86 3 144 -4 70 -3 113 5 127 7 13 8 28 2 44 -8 17 -10 19 -10 5 -1 -13 -35
-37 -55 -37 -8 0 3 44 22 92 10 24 91 88 110 87 10 0 33 -7 52 -14z m1277 9
c-3 -3 -12 -4 -19 -1 -8 3 -5 6 6 6 11 1 17 -2 13 -5z m-1506 -21 c13 -16 12
-17 -3 -4 -10 7 -18 15 -18 17 0 8 8 3 21 -13z m-120 -66 c-8 -8 -11 -8 -11 0
0 6 -3 20 -7 30 -7 17 -6 17 11 0 14 -14 16 -21 7 -30z m462 1 c10 -5 17 -11
15 -14 -8 -7 -128 18 -128 28 0 11 85 0 113 -14z m-378 -8 c-3 -5 -12 -10 -18
-10 -7 0 -6 4 3 10 19 12 23 12 15 0z m350 -21 c26 0 28 -2 10 -10 -18 -8 -17
-9 6 -6 18 3 25 -1 26 -15 2 -19 -17 -24 -33 -8 -5 5 -27 19 -49 30 -27 14
-32 19 -15 16 14 -3 39 -6 55 -7z m-415 -9 c0 -5 -5 -10 -11 -10 -5 0 -7 5 -4
10 3 6 8 10 11 10 2 0 4 -4 4 -10z m-1159 -30 c-23 -5 -21 -7 17 -18 29 -9 46
-22 56 -41 31 -59 15 -169 -30 -212 l-22 -21 -11 20 c-8 15 -8 23 0 27 6 4 8
13 5 21 -3 8 0 14 7 14 8 0 8 3 -2 9 -8 5 -11 16 -8 24 8 21 -19 29 -33 11
-10 -11 -9 -14 6 -14 16 0 16 -3 -6 -20 -17 -13 -20 -20 -10 -20 13 0 13 -1 0
-10 -8 -5 -24 -7 -35 -4 -18 4 -18 4 -2 -6 9 -6 22 -8 28 -5 12 8 41 -14 33
-26 -15 -25 -85 5 -106 45 -10 19 -10 20 5 7 10 -8 17 -9 17 -3 0 6 -7 15 -16
20 -11 6 -14 14 -8 23 5 8 7 22 6 32 -3 16 11 22 49 19 23 -2 50 30 40 47 -5
7 -25 13 -45 13 -42 0 -46 12 -11 40 14 11 22 24 19 30 -4 6 -2 8 4 4 6 -3 13
-2 16 2 3 5 18 7 33 4 l28 -6 -24 -6z m1687 -107 c-2 -7 -18 5 -36 27 -29 35
-31 42 -21 67 l11 28 24 -55 c14 -30 23 -60 22 -67z m-461 10 c-2 -16 -4 -5
-4 22 0 28 2 40 4 28 2 -13 2 -35 0 -50z m-1120 5 c-3 -8 -6 -5 -6 6 -1 11 2
17 5 13 3 -3 4 -12 1 -19z m2050 -10 c-3 -7 -5 -2 -5 12 0 14 2 19 5 13 2 -7
2 -19 0 -25z m156 11 c-18 -12 -33 -27 -33 -34 0 -8 -4 -16 -9 -20 -5 -3 -8 7
-7 22 2 19 12 31 32 40 45 19 53 15 17 -8z m-1166 -21 c-3 -8 -6 -5 -6 6 -1
11 2 17 5 13 3 -3 4 -12 1 -19z m1838 -18 c-3 -5 -10 -10 -16 -10 -5 0 -9 5
-9 10 0 6 7 10 16 10 8 0 12 -4 9 -10z m-1000 -50 c8 -13 -4 -50 -16 -50 -13
0 -22 27 -15 45 6 17 22 20 31 5z m725 -30 c-19 -16 -48 -36 -65 -46 l-30 -17
30 29 c36 36 77 64 90 64 6 0 -6 -14 -25 -30z m242 -32 c-8 -8 -9 -4 -5 13 4
13 8 18 11 10 2 -7 -1 -18 -6 -23z m-1009 -18 c-6 -22 -23 -38 -23 -21 0 17
12 41 20 41 5 0 6 -9 3 -20z m1047 6 c0 -2 -8 -10 -17 -17 -16 -13 -17 -12 -4
4 13 16 21 21 21 13z m-2850 -14 c0 -4 -9 -15 -19 -24 -13 -11 -22 -13 -30 -5
-7 7 -5 14 7 23 19 15 42 18 42 6z m1510 -12 c12 -8 12 -10 -5 -10 -11 0 -27
5 -35 10 -12 8 -12 10 5 10 11 0 27 -5 35 -10z m470 6 c0 -3 -4 -8 -10 -11 -5
-3 -10 -1 -10 4 0 6 5 11 10 11 6 0 10 -2 10 -4z m-2179 -107 c-6 -5 -9 -6 -6
-3 3 4 0 14 -7 21 -7 8 -13 22 -14 31 -1 10 -5 26 -8 37 -4 11 5 -2 19 -29 18
-33 23 -51 16 -57z m2989 78 c0 -2 -10 -12 -22 -23 l-23 -19 19 23 c18 21 26
27 26 19z m-2818 -22 c3 0 10 -4 15 -8 4 -5 -3 -7 -16 -5 -14 1 -26 9 -29 17
-3 10 0 11 9 5 8 -5 17 -9 21 -9z m354 -30 c-12 -19 -24 -25 -49 -23 l-32 1
33 4 c27 4 36 11 45 36 6 17 12 26 15 19 2 -7 -3 -24 -12 -37z m672 -5 c-18
-21 -39 -39 -45 -39 -19 -1 -16 9 9 30 11 11 18 19 13 19 -4 0 3 9 16 19 38
31 43 13 7 -29z m782 43 c0 -5 -5 -15 -10 -23 -8 -12 -10 -11 -10 8 0 12 5 22
10 22 6 0 10 -3 10 -7z m397 -45 c-3 -8 -6 -5 -6 6 -1 11 2 17 5 13 3 -3 4
-12 1 -19z m-727 -8 c8 -5 11 -10 5 -10 -5 0 -17 5 -25 10 -8 5 -10 10 -5 10
6 0 17 -5 25 -10z m300 -11 c-7 -11 -14 -19 -16 -16 -7 7 7 37 17 37 6 0 5 -9
-1 -21z m-146 -5 c3 -8 2 -12 -4 -9 -6 3 -10 10 -10 16 0 14 7 11 14 -7z
m-1844 -3 c0 -6 -5 -13 -10 -16 -6 -4 -7 -11 -4 -17 4 -6 2 -8 -4 -4 -6 3 -14
1 -19 -6 -4 -7 -19 -19 -33 -27 l-25 -14 23 25 c12 13 22 29 22 36 0 11 27 31
43 32 4 0 7 -4 7 -9z m477 3 c-3 -3 -12 -4 -19 -1 -8 3 -5 6 6 6 11 1 17 -2
13 -5z m1339 -21 c-7 -7 -26 7 -26 19 0 6 6 6 15 -2 9 -7 13 -15 11 -17z
m1035 -14 c-27 -25 -71 -114 -71 -144 0 -12 -3 -16 -8 -9 -4 7 -8 -34 -9 -89
-2 -55 1 -105 6 -111 5 -6 30 -49 55 -95 51 -92 50 -101 -14 -100 -46 1 -61 7
-104 47 -36 33 -53 41 -40 20 4 -6 3 -8 -3 -5 -11 7 -5 65 8 73 5 3 9 56 9
119 0 63 4 125 10 140 16 42 61 94 119 136 60 43 77 50 42 18z m-2739 -14 c-2
-14 -8 -25 -12 -25 -4 0 -5 11 -2 25 2 14 8 25 12 25 4 0 5 -11 2 -25z m1171
-3 c-6 -15 -5 -16 12 -2 16 12 15 9 -4 -17 -12 -18 -25 -33 -28 -33 -3 0 0 7
7 15 7 9 10 18 7 21 -3 3 -17 -12 -31 -33 -25 -37 -26 -37 -26 -11 0 15 12 40
26 57 27 32 48 34 37 3z m1098 -12 c-10 -22 -21 -43 -24 -47 -4 -3 -7 -27 -8
-52 0 -40 -2 -43 -11 -24 -6 13 -7 33 -3 50 5 15 7 35 6 43 -2 13 -1 13 9 0 9
-12 10 -7 6 20 -5 26 -4 30 3 15 7 -14 10 -16 10 -4 1 13 19 39 28 39 1 0 -6
-18 -16 -40z m-401 21 c0 -6 -4 -13 -10 -16 -5 -3 -10 1 -10 9 0 9 5 16 10 16
6 0 10 -4 10 -9z m594 -25 c-3 -9 -10 -13 -15 -10 -5 3 -3 11 4 19 15 16 19
13 11 -9z m-1032 -42 c3 -21 3 -55 -2 -74 -5 -19 -12 -48 -15 -63 -9 -44 -25
-21 -25 37 0 128 26 190 42 100z m418 17 c0 -6 -4 -12 -8 -15 -5 -3 -9 1 -9 9
0 8 4 15 9 15 4 0 8 -4 8 -9z m600 -7 c0 -8 -19 -13 -24 -6 -3 5 1 9 9 9 8 0
15 -2 15 -3z m-1800 -28 c-8 -8 -33 -17 -55 -20 l-40 -5 37 12 c20 6 40 15 44
20 4 4 12 7 18 7 6 0 4 -6 -4 -14z m367 -38 c-2 -13 -4 -5 -4 17 -1 22 1 32 4
23 2 -10 2 -28 0 -40z m489 44 c7 -4 9 -30 6 -70 -4 -50 -8 -62 -19 -58 -8 3
-19 6 -24 6 -5 0 -7 10 -4 23 5 19 10 54 14 95 1 14 11 15 27 4z m1394 -11 c0
-3 -9 -21 -20 -38 -11 -18 -17 -33 -13 -33 4 0 -8 -16 -27 -35 -19 -19 -38
-35 -43 -35 -11 0 -2 39 24 106 18 47 22 50 49 46 17 -2 30 -7 30 -11z m-2030
-21 c0 -5 -2 -10 -4 -10 -3 0 -8 5 -11 10 -3 6 -1 10 4 10 6 0 11 -4 11 -10z
m-310 -9 l25 -7 -27 -18 c-18 -12 -37 -16 -53 -12 -30 8 -45 -15 -50 -77 -2
-23 -9 -43 -15 -45 -5 -2 -10 -11 -10 -21 0 -9 -5 -22 -11 -28 -6 -6 -12 -30
-12 -52 -1 -41 -17 -36 -17 6 0 25 -12 35 -46 39 -17 1 -21 -2 -18 -14 3 -10
0 -8 -6 3 -6 11 -41 36 -78 55 -45 24 -66 40 -64 51 1 9 -5 22 -13 29 -15 13
-21 49 -7 51 4 0 25 3 47 5 22 2 92 12 155 23 127 20 163 22 200 12z m1268
-23 c3 -37 -2 -35 -12 5 -3 15 -3 27 2 27 4 0 9 -14 10 -32z m1103 0 c13 -17
18 -28 12 -25 -7 5 -11 1 -11 -10 1 -10 -6 -42 -15 -72 -10 -30 -17 -66 -17
-79 0 -14 -3 -23 -6 -19 -11 11 -14 182 -3 210 6 15 13 27 15 27 1 0 13 -14
25 -32z m-3111 6 c-17 -19 -45 -34 -76 -40 -40 -7 -18 23 29 40 55 19 62 19
47 0z m2662 -30 c-3 -22 -8 -32 -14 -26 -5 5 -5 19 1 35 14 37 18 34 13 -9z
m-62 1 c0 -25 -18 -25 -22 -1 -4 17 -1 23 9 19 7 -3 13 -11 13 -18z m-1782
-21 c-3 -29 0 -39 19 -51 22 -15 23 -40 1 -27 -6 4 -8 2 -5 -3 4 -6 -1 -17
-10 -24 -14 -12 -16 -12 -9 1 4 8 -2 4 -14 -10 -12 -14 -18 -18 -14 -10 7 13
5 13 -9 2 -20 -17 -77 -7 -77 13 0 7 17 28 39 47 21 18 46 48 55 66 22 42 29
41 24 -4z m321 16 c25 -13 -5 -19 -45 -9 -59 16 -68 33 -14 24 25 -4 51 -11
59 -15z m48 -57 c-2 -16 -4 -5 -4 22 0 28 2 40 4 28 2 -13 2 -35 0 -50z m1218
37 c0 -13 -6 -25 -12 -27 -9 -3 -13 6 -13 27 0 21 4 30 13 28 6 -3 12 -15 12
-28z m-985 16 c0 -2 -6 -9 -14 -15 -11 -9 -16 -9 -22 0 -4 7 -3 9 4 5 6 -3 13
-2 17 4 6 10 15 14 15 6z m93 -16 c6 0 3 -8 -6 -17 -16 -16 -19 -16 -27 -3
-14 22 -12 33 6 26 9 -3 21 -6 27 -6z m-1173 -40 c-7 -5 -9 -14 -5 -21 6 -10
5 -11 -4 -3 -14 12 -4 47 11 38 6 -4 6 -9 -2 -14z m2292 -11 c-6 -27 -17 -28
-28 -4 -11 22 -10 24 10 21 11 -2 20 -10 18 -17z m38 -79 c-4 -36 -8 -57 -8
-47 -1 9 -6 17 -12 17 -5 0 -10 8 -10 18 0 10 -5 23 -11 29 -8 8 -7 17 3 32 8
12 18 18 21 14 4 -3 7 0 7 7 0 9 3 10 8 5 5 -6 6 -39 2 -75z m-1493 38 c-3 -8
-6 -5 -6 6 -1 11 2 17 5 13 3 -3 4 -12 1 -19z m1852 -53 c0 -5 -8 6 -19 25
-11 19 -19 40 -19 45 0 6 8 -6 19 -25 11 -19 19 -39 19 -45z m-2349 -13 c-8
-47 -17 -62 -36 -62 -20 0 -18 16 8 61 28 49 37 50 28 1z m-140 -2 c0 -5 -4
-10 -10 -10 -5 0 -10 5 -10 10 0 6 5 10 10 10 6 0 10 -4 10 -10z m-133 -153
c8 -60 8 -84 0 -89 -15 -9 -49 10 -44 25 2 7 -3 27 -10 46 -8 18 -12 36 -9 39
3 3 6 1 6 -4 0 -14 29 -51 30 -38 0 6 -11 27 -24 46 -24 36 -41 100 -29 111 4
4 21 -6 38 -23 28 -27 33 -41 42 -113z m886 129 c9 -7 17 -22 17 -33 0 -26 22
-44 95 -78 33 -15 54 -29 47 -32 -7 -3 -24 2 -38 11 -13 9 -38 18 -54 19 -17
1 -30 5 -30 10 0 10 -48 9 -86 -2 -17 -5 -57 -6 -90 -2 -46 5 -60 10 -62 25
-5 25 8 36 49 41 73 9 100 18 110 36 11 22 18 23 42 5z m204 -11 c0 -8 -4 -15
-9 -15 -4 0 -8 7 -8 15 0 8 4 15 8 15 5 0 9 -7 9 -15z m1213 -56 c0 -6 -4 -7
-10 -4 -5 3 -10 11 -10 16 0 6 5 7 10 4 6 -3 10 -11 10 -16z m-1270 -16 c27
-18 40 -33 40 -47 0 -5 -7 -2 -16 5 -9 7 -25 18 -37 24 -21 10 -35 35 -20 35
5 0 20 -8 33 -17z m1749 -34 c-9 -17 -13 -19 -20 -8 -5 8 -3 16 4 21 22 14 28
8 16 -13z m-389 -52 c0 -4 -9 -3 -20 3 -11 6 -20 15 -20 20 0 6 9 5 20 -2 11
-7 20 -16 20 -21z m-1523 8 c0 -8 -6 -15 -13 -15 -18 0 -27 17 -12 23 21 9 25
8 25 -8z m38 5 c3 -5 -1 -10 -10 -10 -9 0 -13 5 -10 10 3 6 8 10 10 10 2 0 7
-4 10 -10z m98 -14 c18 -8 47 -27 66 -43 29 -25 31 -29 13 -29 -11 0 -19 3
-16 7 5 8 -21 19 -45 19 -10 0 -28 11 -40 24 -13 14 -33 27 -45 29 -16 3 -15
5 7 6 15 0 42 -5 60 -13z m1252 -69 c28 -42 40 -65 28 -59 -14 8 -24 4 -44
-16 -47 -48 -151 -176 -165 -204 -18 -34 -25 -35 -72 -3 -26 18 -38 21 -43 13
-4 -7 -6 -15 -4 -19 3 -3 18 -59 34 -123 28 -110 29 -119 15 -142 -9 -13 -20
-24 -24 -24 -20 0 -40 81 -42 173 -2 55 -7 101 -12 104 -4 3 -5 -4 -1 -16 5
-16 3 -20 -9 -15 -14 5 -126 212 -126 233 0 20 20 11 110 -48 l90 -59 68 82
c113 135 142 172 142 186 0 17 0 17 55 -63z m-1639 54 c-8 -12 -66 -32 -66
-22 0 9 39 29 58 30 7 1 11 -3 8 -8z m334 -11 c0 -5 -2 -10 -4 -10 -3 0 -8 5
-11 10 -3 6 -1 10 4 10 6 0 11 -4 11 -10z m30 -4 c0 -3 -4 -8 -10 -11 -5 -3
-10 -1 -10 4 0 6 5 11 10 11 6 0 10 -2 10 -4z m-450 -52 c0 -8 -11 -19 -25
-24 -20 -8 -24 -15 -20 -33 5 -17 -1 -28 -24 -45 -36 -26 -36 -26 -15 24 32
76 84 125 84 78z m470 16 c8 -5 11 -10 5 -10 -5 0 -17 5 -25 10 -8 5 -10 10
-5 10 6 0 17 -5 25 -10z m-1051 -14 c15 -17 4 -89 -12 -83 -6 2 -15 18 -20 36
-13 52 5 79 32 47z m201 -12 c6 -15 11 -37 12 -49 1 -13 6 -21 10 -19 4 3 8
-3 9 -13 1 -13 3 -11 9 7 7 22 8 21 9 -12 1 -38 -15 -60 -29 -38 -4 6 -10 11
-14 11 -21 -3 -25 4 -24 49 0 28 -5 57 -11 64 -11 13 -5 26 11 26 5 0 13 -12
18 -26z m1040 -46 c0 -4 10 -16 21 -27 l21 -20 -21 6 c-12 3 -27 0 -35 -6 -20
-17 -34 5 -42 69 l-7 55 31 -35 c18 -19 32 -38 32 -42z m-163 56 c-8 -8 16
-33 26 -27 4 2 7 -4 7 -13 0 -15 -4 -14 -25 6 -21 20 -25 40 -8 40 4 0 4 -3 0
-6z m-1266 -25 c11 -5 17 -14 14 -20 -7 -11 -45 7 -45 21 0 13 7 13 31 -1z
m1353 -29 c6 -8 1 -7 -11 4 -13 10 -20 23 -16 29 4 7 8 6 11 -3 3 -8 10 -22
16 -30z m-577 14 c-3 -3 -12 -4 -19 -1 -8 3 -5 6 6 6 11 1 17 -2 13 -5z m-607
-74 c0 -13 -12 -12 -32 4 -10 7 -15 16 -12 19 9 8 44 -11 44 -23z m624 15 c-4
-8 -8 -15 -10 -15 -2 0 -4 7 -4 15 0 8 4 15 10 15 5 0 7 -7 4 -15z m-509 -32
c50 -25 56 -31 52 -53 -3 -14 -1 -33 5 -43 5 -10 8 -21 6 -23 -6 -6 -136 37
-187 62 -43 20 -44 21 -18 26 15 3 27 1 27 -3 0 -21 28 6 34 32 3 16 10 29 16
29 5 0 35 -12 65 -27z m1490 -83 c0 -34 -6 -57 -22 -79 -13 -16 -23 -42 -23
-56 0 -32 -15 -32 -36 0 -14 21 -14 30 -4 55 7 17 16 30 20 30 4 0 14 15 21
33 15 33 16 39 18 72 1 15 4 17 14 7 6 -7 12 -35 12 -62z m-1072 12 c-3 -12
-9 -19 -14 -16 -5 3 -4 14 2 25 13 26 20 21 12 -9z m1013 -20 c-17 -16 -18
-16 -5 5 7 12 15 20 18 17 3 -2 -3 -12 -13 -22z m1229 -2 c-3 -5 -1 -10 5 -10
6 0 8 -4 5 -10 -3 -5 2 -10 12 -11 10 0 13 -3 6 -6 -9 -3 -8 -11 5 -31 9 -15
11 -23 4 -18 -11 7 -52 78 -52 91 0 3 5 5 11 5 5 0 7 -4 4 -10z m-2608 -34
c18 0 31 -2 28 -4 -3 -3 16 -20 43 -37 58 -40 76 -60 90 -104 16 -46 7 -54
-37 -31 -22 10 -48 17 -59 15 -16 -3 -27 8 -50 49 -17 29 -46 66 -66 84 -43
38 -45 47 -8 36 15 -4 42 -8 59 -8z m2686 -14 c-3 -12 -9 -22 -14 -22 -5 0 -3
11 3 25 13 30 20 28 11 -3z m-2918 7 c11 -17 -1 -21 -15 -4 -8 9 -8 15 -2 15
6 0 14 -5 17 -11z m575 -95 c-6 -15 -8 -29 -5 -32 3 -4 8 4 12 16 8 32 24 27
17 -5 -3 -17 -2 -23 3 -16 5 7 14 9 22 4 11 -7 10 -13 -4 -35 -15 -22 -15 -29
-4 -43 8 -10 9 -14 2 -10 -7 4 -14 -1 -18 -13 -8 -25 -1 -36 25 -43 28 -7 48
60 24 83 -15 14 -16 13 -10 -10 6 -20 5 -22 -4 -8 -5 9 -7 24 -4 33 6 14 10
13 31 -7 15 -14 22 -30 19 -42 -3 -10 4 -37 15 -58 23 -44 20 -55 -8 -40 -10
6 -50 12 -88 13 -62 2 -69 1 -76 -19 -5 -12 -16 -21 -26 -21 -17 1 -17 2 0 6
14 4 17 12 14 37 -2 18 -10 42 -16 54 -10 19 -9 22 7 22 25 0 44 23 36 43 -4
12 -1 14 15 10 31 -8 26 18 -9 46 -17 13 -30 29 -30 36 0 15 31 15 43 0 5 -6
6 5 3 23 -5 29 -4 31 9 18 12 -11 13 -21 5 -42z m-516 -17 c9 -26 16 -60 15
-75 0 -17 -7 -2 -18 38 -10 36 -21 74 -26 85 -5 14 -5 17 3 10 5 -5 17 -32 26
-58z m466 -35 c0 -13 -12 -22 -22 -16 -10 6 -1 24 13 24 5 0 9 -4 9 -8z m1070
-16 c0 -3 -4 -8 -10 -11 -5 -3 -10 -1 -10 4 0 6 5 11 10 11 6 0 10 -2 10 -4z
m-1953 -22 c-3 -3 -12 -4 -19 -1 -8 3 -5 6 6 6 11 1 17 -2 13 -5z m721 -16 c3
-14 -4 -17 -32 -16 -35 1 -35 2 -19 20 20 22 46 20 51 -4z m-831 6 c-3 -3 -12
-4 -19 -1 -8 3 -5 6 6 6 11 1 17 -2 13 -5z m917 -18 c-8 -20 -24 -21 -24 0 0
8 5 12 10 9 6 -3 10 -1 10 6 0 7 2 10 5 7 3 -3 3 -13 -1 -22z m-1213 -53 c38
-29 58 -52 54 -61 -3 -7 -5 -22 -5 -33 0 -10 -5 -19 -11 -19 -7 0 -9 10 -5 26
6 21 -1 33 -39 70 -26 24 -51 44 -56 44 -5 0 -9 5 -9 10 0 17 9 12 71 -37z
m1210 -12 c6 10 8 6 5 -11 -3 -14 -5 -27 -6 -30 -3 -9 -19 35 -18 50 0 9 2 7
5 -4 4 -15 7 -16 14 -5z m2317 -18 c-15 -18 -21 -9 -13 18 6 16 9 18 16 8 4
-8 3 -19 -3 -26z"/>
<path d="M2567 6220 c3 -11 7 -20 9 -20 2 0 4 9 4 20 0 11 -4 20 -9 20 -5 0
-7 -9 -4 -20z"/>
<path d="M2507 6203 c-4 -3 -7 -11 -7 -17 0 -6 5 -5 12 2 6 6 9 14 7 17 -3 3
-9 2 -12 -2z"/>
<path d="M2530 6201 c0 -10 19 -25 25 -20 1 2 -3 10 -11 17 -8 7 -14 8 -14 3z"/>
<path d="M2800 5809 c0 -5 5 -7 10 -4 6 3 10 8 10 11 0 2 -4 4 -10 4 -5 0 -10
-5 -10 -11z"/>
<path d="M2794 5722 c-8 -4 -9 -21 -5 -47 l7 -40 18 27 c14 21 15 31 6 47 -12
24 -11 23 -26 13z m26 -37 c0 -5 -5 -3 -10 5 -5 8 -10 20 -10 25 0 6 5 3 10
-5 5 -8 10 -19 10 -25z"/>
<path d="M2601 5314 c0 -11 3 -14 6 -6 3 7 2 16 -1 19 -3 4 -6 -2 -5 -13z"/>
<path d="M2860 5055 c-6 -8 -10 -20 -8 -26 2 -6 12 0 21 15 18 27 8 37 -13 11z"/>
<path d="M1650 4970 c0 -5 5 -10 11 -10 5 0 7 5 4 10 -3 6 -8 10 -11 10 -2 0
-4 -4 -4 -10z"/>
<path d="M3242 4910 c0 -14 2 -19 5 -12 2 6 2 18 0 25 -3 6 -5 1 -5 -13z"/>
<path d="M2075 4640 c-3 -5 -1 -10 4 -10 6 0 11 5 11 10 0 6 -2 10 -4 10 -3 0
-8 -4 -11 -10z"/>
<path d="M130 4342 c6 -13 16 -20 22 -16 8 5 9 1 4 -12 -5 -14 -4 -16 4 -8 7
7 7 18 1 35 -8 20 -10 21 -10 5 -1 -20 -1 -20 -17 0 -14 18 -15 18 -4 -4z"/>
<path d="M181 4250 c0 -8 6 -24 14 -34 8 -11 15 -14 15 -8 0 7 0 14 0 17 0 3
-3 5 -7 4 -4 0 -10 8 -14 18 -5 13 -8 14 -8 3z"/>
<path d="M2933 4105 c0 -8 4 -12 9 -9 5 3 6 10 3 15 -9 13 -12 11 -12 -6z"/>
<path d="M1705 3830 c-3 -6 1 -7 9 -4 18 7 21 14 7 14 -6 0 -13 -4 -16 -10z"/>
<path d="M1660 3750 c-9 -6 -10 -10 -3 -10 6 0 15 5 18 10 8 12 4 12 -15 0z"/>
<path d="M1670 3720 c0 -5 5 -10 10 -10 6 0 10 5 10 10 0 6 -4 10 -10 10 -5 0
-10 -4 -10 -10z"/>
<path d="M519 3698 c-5 -18 -6 -38 -1 -34 7 8 12 36 6 36 -2 0 -4 -1 -5 -2z"/>
<path d="M293 3455 c0 -8 4 -12 9 -9 5 3 6 10 3 15 -9 13 -12 11 -12 -6z"/>
<path d="M359 3363 c-13 -16 -12 -17 4 -4 16 13 21 21 13 21 -2 0 -10 -8 -17
-17z"/>
<path d="M3718 2297 c-21 -6 -38 -14 -38 -19 0 -5 5 -6 12 -2 7 4 8 3 4 -5 -4
-6 -11 -9 -15 -7 -4 3 -18 -6 -30 -20 l-22 -26 23 7 c29 9 108 65 108 77 0 4
-1 7 -2 7 -2 -1 -20 -6 -40 -12z"/>
<path d="M3580 2235 c-11 -13 -10 -14 4 -9 9 3 16 10 16 15 0 13 -6 11 -20 -6z"/>
<path d="M910 1932 c-30 -10 -41 -24 -29 -38 6 -8 15 -11 20 -8 5 3 9 2 8 -3
-4 -23 3 -24 21 -3 11 13 20 26 20 30 0 14 -25 27 -40 22z"/>
<path d="M3486 1097 c3 -10 9 -15 12 -12 3 3 0 11 -7 18 -10 9 -11 8 -5 -6z"/>
<path d="M3540 1091 c0 -5 5 -13 10 -16 6 -3 10 -2 10 4 0 5 -4 13 -10 16 -5
3 -10 2 -10 -4z"/>
<path d="M3590 1070 c0 -5 5 -10 11 -10 5 0 7 5 4 10 -3 6 -8 10 -11 10 -2 0
-4 -4 -4 -10z"/>
<path d="M1388 1443 c6 -2 18 -2 25 0 6 3 1 5 -13 5 -14 0 -19 -2 -12 -5z"/>
<path d="M1210 1413 c0 -5 9 -21 20 -38 l20 -30 -2 37 c-2 29 -7 38 -20 38
-10 0 -18 -3 -18 -7z"/>
<path d="M1060 1386 c0 -2 11 -6 25 -8 13 -3 22 -1 19 3 -5 9 -44 13 -44 5z"/>
<path d="M1100 1351 c0 -6 4 -13 10 -16 6 -3 7 1 4 9 -7 18 -14 21 -14 7z"/>
<path d="M1130 1330 c0 -5 10 -10 23 -10 18 0 19 2 7 10 -19 13 -30 13 -30 0z"/>
<path d="M1250 1333 c0 -5 10 -18 23 -29 l22 -19 -20 25 c-11 14 -21 27 -22
29 -2 2 -3 0 -3 -6z"/>
<path d="M3780 1431 c0 -5 7 -11 14 -14 10 -4 13 -1 9 9 -6 15 -23 19 -23 5z"/>
<path d="M2945 810 c-7 -11 8 -41 29 -60 22 -17 20 -8 -3 19 -11 13 -17 29
-14 37 6 16 -3 19 -12 4z"/>
<path d="M2994 708 c-4 -6 -3 -8 4 -4 6 3 18 -1 26 -10 9 -8 16 -11 16 -5 0
17 -38 33 -46 19z"/>
<path d="M3066 555 c4 -8 8 -15 10 -15 2 0 4 7 4 15 0 8 -4 15 -10 15 -5 0 -7
-7 -4 -15z"/>
<path d="M3065 470 c-3 -5 -1 -10 4 -10 6 0 11 5 11 10 0 6 -2 10 -4 10 -3 0
-8 -4 -11 -10z"/>
<path d="M1255 840 c3 -5 8 -10 11 -10 2 0 4 5 4 10 0 6 -5 10 -11 10 -5 0 -7
-4 -4 -10z"/>
<path d="M3099 6553 c-13 -16 -12 -17 4 -4 9 7 17 15 17 17 0 8 -8 3 -21 -13z"/>
<path d="M2680 6500 c-9 -6 -10 -10 -3 -10 6 0 15 5 18 10 8 12 4 12 -15 0z"/>
<path d="M2620 6470 c-9 -6 -10 -10 -3 -10 6 0 15 5 18 10 8 12 4 12 -15 0z"/>
<path d="M2505 6459 c-12 -19 5 -23 22 -6 16 16 16 17 1 17 -9 0 -20 -5 -23
-11z"/>
<path d="M2030 6180 c-8 -5 -10 -10 -5 -10 6 0 17 5 25 10 8 5 11 10 5 10 -5
0 -17 -5 -25 -10z"/>
<path d="M3880 5935 c0 -18 19 -40 26 -32 4 4 0 15 -9 24 -9 10 -17 13 -17 8z"/>
<path d="M1365 5900 c-4 -6 -11 -7 -17 -4 -7 4 -8 2 -4 -5 6 -9 11 -9 22 0 14
11 18 19 10 19 -3 0 -8 -5 -11 -10z"/>
<path d="M1210 5850 c-8 -5 -10 -10 -5 -10 6 0 17 5 25 10 8 5 11 10 5 10 -5
0 -17 -5 -25 -10z"/>
<path d="M1188 5783 c7 -3 16 -2 19 1 4 3 -2 6 -13 5 -11 0 -14 -3 -6 -6z"/>
<path d="M1085 5760 c-3 -6 1 -7 9 -4 18 7 21 14 7 14 -6 0 -13 -4 -16 -10z"/>
<path d="M904 5682 c3 -5 0 -13 -6 -15 -9 -4 -10 -6 -1 -6 17 -1 25 16 12 25
-7 4 -9 3 -5 -4z"/>
<path d="M987 5665 c-17 -24 -13 -33 8 -17 9 6 20 42 13 42 -2 0 -11 -12 -21
-25z"/>
<path d="M684 5614 c-18 -14 -18 -15 4 -4 12 6 22 13 22 15 0 8 -5 6 -26 -11z"/>
<path d="M775 5606 c-22 -23 -26 -36 -11 -30 8 3 17 13 20 21 8 20 4 24 -9 9z"/>
<path d="M625 5560 c-3 -6 1 -7 9 -4 18 7 21 14 7 14 -6 0 -13 -4 -16 -10z"/>
<path d="M605 5514 c-18 -16 -22 -22 -9 -15 18 9 53 42 43 41 -2 -1 -17 -12
-34 -26z"/>
<path d="M588 5473 c7 -3 16 -2 19 1 4 3 -2 6 -13 5 -11 0 -14 -3 -6 -6z"/>
<path d="M434 5436 c-10 -8 -17 -17 -14 -19 3 -3 16 3 29 14 27 22 15 26 -15
5z"/>
<path d="M933 5308 c3 -13 10 -38 14 -57 7 -30 10 -32 22 -17 16 19 38 21 44
4 2 -7 7 -11 10 -8 3 3 -17 27 -45 53 -41 39 -49 44 -45 25z"/>
<path d="M28 5158 c-35 -12 -36 -24 -2 -23 15 1 31 9 36 18 10 19 5 20 -34 5z"/>
<path d="M975 4110 c3 -5 11 -10 16 -10 6 0 7 5 4 10 -3 6 -11 10 -16 10 -6 0
-7 -4 -4 -10z"/>
<path d="M905 3980 c-3 -6 -11 -7 -17 -4 -7 5 -8 2 -3 -5 5 -9 10 -10 18 -2 8
8 15 6 27 -4 15 -13 17 -13 17 0 0 8 -3 13 -5 10 -3 -3 -11 0 -18 6 -8 7 -14
7 -19 -1z"/>
<path d="M910 3950 c0 -5 9 -14 20 -20 11 -6 20 -9 20 -8 0 2 -9 11 -20 21
-11 9 -20 13 -20 7z"/>
<path d="M1030 3750 c6 -11 13 -20 16 -20 2 0 0 9 -6 20 -6 11 -13 20 -16 20
-2 0 0 -9 6 -20z"/>
<path d="M193 3651 c4 -28 12 -34 14 -11 1 11 -2 22 -8 25 -5 4 -8 -3 -6 -14z"/>
<path d="M1840 3647 c0 -9 -4 -17 -10 -17 -6 0 -5 -10 2 -25 17 -37 30 -30 22
13 -7 41 -14 55 -14 29z"/>
<path d="M2020 3634 c0 -6 7 -19 16 -30 14 -18 14 -18 3 6 -14 31 -19 36 -19
24z"/>
<path d="M171 3606 c-8 -10 -9 -16 -1 -21 6 -4 9 -1 8 7 -2 7 3 12 10 10 8 -1
11 2 7 8 -8 13 -10 13 -24 -4z"/>
<path d="M1315 3589 c4 -6 0 -9 -10 -7 -10 2 -20 -3 -22 -10 -3 -7 1 -10 11
-6 11 4 16 0 17 -12 0 -11 3 -14 5 -7 3 7 12 9 20 6 19 -7 18 12 -2 31 -18 18
-28 21 -19 5z"/>
<path d="M136 3561 c-11 -12 -14 -21 -7 -26 6 -3 12 -4 12 -1 1 3 2 9 3 14 1
4 5 13 9 20 12 18 2 15 -17 -7z"/>
<path d="M1441 3573 c0 -4 4 -17 9 -28 8 -19 9 -19 9 2 1 12 -3 25 -9 28 -5 3
-10 3 -9 -2z"/>
<path d="M1990 3531 c0 -24 -16 -36 -23 -19 -4 8 -6 7 -6 -4 -2 -30 18 -29 34
1 9 19 11 32 5 36 -6 3 -10 -3 -10 -14z"/>
<path d="M84 3309 c-4 -7 -3 -9 4 -5 15 9 22 -7 8 -20 -6 -5 -14 -11 -18 -12
-5 -1 -7 -3 -6 -4 1 -2 -4 -13 -11 -25 -14 -27 -29 -29 -46 -7 -9 14 -11 11
-11 -14 1 -17 5 -34 9 -39 5 -4 7 -1 5 7 -1 8 2 14 8 13 6 -1 30 20 53 46 33
40 38 51 27 60 -11 9 -16 9 -22 0z"/>
<path d="M0 3272 c0 -5 9 -12 21 -15 13 -3 19 -1 16 6 -5 15 -37 22 -37 9z"/>
<path d="M2515 3209 c-4 -6 -5 -12 -2 -15 2 -3 7 2 10 11 7 17 1 20 -8 4z"/>
<path d="M2484 3177 c-5 -7 -21 -20 -35 -29 -19 -14 -20 -16 -4 -11 18 6 19 5
5 -13 -14 -18 -14 -18 2 -5 10 7 15 18 12 23 -3 5 3 12 15 15 12 3 21 12 21
19 0 17 -2 17 -16 1z"/>
<path d="M2416 3022 c-3 -5 1 -9 9 -9 8 0 12 4 9 9 -3 4 -7 8 -9 8 -2 0 -6 -4
-9 -8z"/>
<path d="M15 3000 c4 -6 11 -8 16 -5 14 9 11 15 -7 15 -8 0 -12 -5 -9 -10z"/>
<path d="M2378 2986 c-16 -23 -16 -26 2 -64 19 -39 20 -39 72 -38 46 1 53 3
51 21 -1 11 4 23 10 28 7 4 0 5 -14 2 -17 -4 -30 -1 -38 9 -8 9 -10 16 -5 16
4 0 -7 11 -26 25 -19 14 -34 25 -34 25 -1 0 -9 -11 -18 -24z"/>
<path d="M1561 2834 c0 -11 3 -14 6 -6 3 7 2 16 -1 19 -3 4 -6 -2 -5 -13z"/>
<path d="M1157 2632 c-10 -10 -17 -25 -17 -33 0 -12 2 -12 9 0 5 7 13 11 19 7
5 -3 22 6 36 19 l27 25 -29 0 c-16 0 -36 -8 -45 -18z"/>
<path d="M1103 2606 c-26 -12 -31 -36 -8 -36 13 0 42 38 33 44 -2 1 -13 -3
-25 -8z"/>
<path d="M2830 2566 c0 -2 8 -10 18 -17 15 -13 16 -12 3 4 -13 16 -21 21 -21
13z"/>
<path d="M2882 2537 c-6 -18 -12 -41 -12 -50 0 -9 -8 -21 -17 -27 -17 -11 -17
-11 0 -6 10 3 21 6 23 6 2 0 4 12 4 26 0 14 5 34 11 45 6 11 9 25 7 30 -2 6
-9 -5 -16 -24z"/>
<path d="M2723 2453 c9 -2 23 -2 30 0 6 3 -1 5 -18 5 -16 0 -22 -2 -12 -5z"/>
<path d="M2798 2453 c7 -3 16 -2 19 1 4 3 -2 6 -13 5 -11 0 -14 -3 -6 -6z"/>
<path d="M2617 2421 c-41 -26 -46 -36 -10 -17 17 9 35 20 38 26 8 13 6 12 -28
-9z"/>
<path d="M2539 2369 l-24 -20 28 17 c15 9 27 18 27 20 0 8 -8 4 -31 -17z"/>
<path d="M138 2163 c7 -3 16 -2 19 1 4 3 -2 6 -13 5 -11 0 -14 -3 -6 -6z"/>
<path d="M372 2155 c4 -5 4 -13 -2 -19 -6 -8 -3 -12 9 -12 22 0 21 28 0 34 -8
3 -11 1 -7 -3z"/>
<path d="M325 2121 c-3 -5 -2 -12 3 -15 5 -3 9 1 9 9 0 17 -3 19 -12 6z"/>
<path d="M33 2092 c1 -22 7 -30 22 -30 11 0 30 -3 43 -7 14 -5 22 -3 22 4 0 6
-6 11 -14 11 -8 0 -17 6 -19 13 -4 9 -6 9 -6 0 -1 -17 -31 -4 -31 12 0 8 -4
16 -10 20 -5 3 -8 -7 -7 -23z"/>
<path d="M507 2096 c-10 -8 -14 -17 -9 -20 6 -3 12 1 16 9 9 24 39 19 33 -5
-3 -11 -1 -18 3 -15 5 3 11 1 14 -4 4 -5 -2 -11 -11 -13 -11 -2 -14 -6 -8 -10
6 -4 17 -3 24 1 10 7 10 14 -3 40 -18 34 -31 38 -59 17z"/>
<path d="M3546 2085 c-9 -26 -7 -32 5 -12 6 10 9 21 6 23 -2 3 -7 -2 -11 -11z"/>
<path d="M10 2080 c-6 -66 -8 -102 -3 -86 4 14 7 15 13 6 5 -8 11 -2 18 19 7
20 7 31 1 31 -5 0 -14 10 -19 23 -5 13 -9 16 -10 7z"/>
<path d="M3625 2069 c-11 -17 1 -21 15 -4 8 9 8 15 2 15 -6 0 -14 -5 -17 -11z"/>
<path d="M226 2061 c-4 -5 -2 -19 2 -32 7 -18 10 -19 15 -6 3 9 2 19 -4 22 -5
4 -7 11 -4 16 4 5 4 9 1 9 -3 0 -7 -4 -10 -9z"/>
<path d="M470 2047 c-10 -19 -9 -20 2 -6 7 9 19 14 26 12 17 -6 15 4 -3 11 -9
3 -19 -3 -25 -17z"/>
<path d="M3645 2050 c-10 -11 -15 -23 -12 -27 4 -3 7 -1 7 6 0 7 4 10 9 7 5
-3 12 1 15 10 10 25 1 27 -19 4z"/>
<path d="M3677 2047 c-12 -15 -16 -30 -11 -47 4 -14 7 -35 7 -47 -1 -32 16
-29 108 17 44 22 91 40 105 40 19 0 24 5 24 26 0 21 -3 25 -17 19 -38 -16
-109 -43 -130 -49 -17 -6 -23 -3 -23 8 0 9 -4 16 -10 16 -5 0 -10 7 -10 16 0
8 -4 13 -9 10 -5 -4 -11 -2 -13 4 -1 5 -11 -1 -21 -13z"/>
<path d="M505 2030 c-6 -9 -4 -11 5 -5 8 5 11 3 8 -6 -4 -10 -18 -13 -51 -11
-26 2 -47 1 -47 -1 0 -6 131 -30 135 -25 2 2 -7 16 -20 32 -16 20 -25 25 -30
16z m30 -30 c3 -5 1 -10 -4 -10 -6 0 -11 5 -11 10 0 6 2 10 4 10 3 0 8 -4 11
-10z"/>
<path d="M3570 2020 c0 -5 5 -10 11 -10 5 0 7 5 4 10 -3 6 -8 10 -11 10 -2 0
-4 -4 -4 -10z"/>
<path d="M3500 2010 c-8 -5 -22 -7 -32 -4 -9 2 -19 1 -22 -4 -3 -5 7 -8 22 -7
31 3 85 23 62 24 -8 0 -22 -4 -30 -9z"/>
<path d="M3611 2004 c0 -11 3 -14 6 -6 3 7 2 16 -1 19 -3 4 -6 -2 -5 -13z"/>
<path d="M3407 1971 c-9 -16 -17 -33 -17 -38 0 -4 9 7 21 26 11 18 18 35 17
37 -2 2 -12 -10 -21 -25z"/>
<path d="M3418 1945 c-6 -14 -17 -25 -25 -25 -7 0 -13 -5 -13 -10 0 -14 36 5
43 22 4 10 6 10 6 0 1 -7 6 -10 11 -7 20 12 30 -6 13 -23 -10 -9 -14 -14 -9
-9 6 4 18 7 27 7 27 0 29 13 9 40 -16 21 -20 22 -36 10 -16 -13 -17 -13 -11 3
10 26 -2 20 -15 -8z"/>
<path d="M3896 1955 c4 -8 8 -15 10 -15 2 0 4 7 4 15 0 8 -4 15 -10 15 -5 0
-7 -7 -4 -15z"/>
<path d="M3577 1929 c-9 -5 -21 -8 -26 -5 -11 7 -48 -21 -39 -30 12 -11 95 16
95 32 0 16 -6 17 -30 3z"/>
<path d="M3450 1875 c-7 -8 -15 -13 -19 -11 -3 2 -13 -3 -21 -12 -13 -14 -12
-15 5 -8 11 5 28 11 37 13 10 3 15 10 12 15 -4 6 2 7 16 3 15 -5 20 -4 16 4
-10 15 -31 14 -46 -4z"/>
<path d="M0 1814 c0 -8 5 -12 10 -9 6 4 8 11 5 16 -9 14 -15 11 -15 -7z"/>
<path d="M1685 1821 c-3 -5 -2 -12 3 -15 5 -3 9 1 9 9 0 17 -3 19 -12 6z"/>
<path d="M1420 1800 c-8 -5 -10 -10 -5 -10 6 0 17 5 25 10 8 5 11 10 5 10 -5
0 -17 -5 -25 -10z"/>
<path d="M1454 1768 c-19 -23 -19 -23 1 -7 11 10 29 19 40 22 19 4 19 5 -1 6
-11 0 -29 -9 -40 -21z"/>
<path d="M1725 1750 c-16 -11 -25 -20 -20 -20 6 0 24 9 40 20 17 11 26 20 20
20 -5 0 -23 -9 -40 -20z"/>
<path d="M1298 1723 c7 -3 16 -2 19 1 4 3 -2 6 -13 5 -11 0 -14 -3 -6 -6z"/>
<path d="M1940 1674 c0 -9 -5 -12 -12 -8 -7 4 -8 3 -4 -5 6 -9 11 -9 22 0 7 6
11 15 8 20 -8 14 -14 11 -14 -7z"/>
<path d="M0 1202 c0 -5 16 -22 35 -36 19 -15 35 -23 35 -18 0 5 -16 22 -35 36
-19 15 -35 23 -35 18z"/>
<path d="M3 1112 c-1 -28 1 -32 7 -17 8 19 9 19 9 -2 1 -12 -4 -25 -9 -28 -12
-7 -14 -125 -2 -125 20 0 112 31 112 38 0 9 -43 37 -52 34 -5 -1 -8 7 -8 18 0
11 -4 20 -10 20 -5 0 -10 12 -10 28 0 15 -8 37 -18 49 l-17 23 -2 -38z"/>
<path d="M227 1125 c24 -32 38 -32 17 0 -9 14 -20 25 -26 25 -5 0 -1 -11 9
-25z"/>
<path d="M35 1120 c3 -5 8 -10 11 -10 2 0 4 5 4 10 0 6 -5 10 -11 10 -5 0 -7
-4 -4 -10z"/>
<path d="M55 1109 c-4 -12 -2 -26 4 -32 8 -8 11 -2 11 21 0 37 -6 41 -15 11z"/>
<path d="M280 1072 c0 -4 10 -13 23 -21 22 -14 22 -14 3 8 -20 22 -26 25 -26
13z"/>
<path d="M1924 1001 c4 -5 1 -12 -4 -14 -6 -3 -5 -4 2 -3 15 3 23 26 8 26 -6
0 -9 -4 -6 -9z"/>
<path d="M1844 965 c-11 -26 6 -36 31 -18 15 12 19 20 11 25 -18 12 -36 9 -42
-7z"/>
<path d="M1590 631 c0 -5 7 -15 17 -22 15 -13 15 -12 4 9 -12 23 -21 28 -21
13z"/>
<path d="M1785 419 c-5 -14 -1 -25 12 -34 28 -22 31 -18 19 20 -12 40 -22 44
-31 14z"/>
</g>
</svg>
